<svg xmlns="http://www.w3.org/2000/svg" width="64" height="64" fill="none" viewBox="0 0 64 64">
  <g class="multi-bullets-rtl">
    <path fill="#444" d="M43 13H8v1h35v-1ZM33 31H8v1h25v-1Zm-6 18H8v1h19v-1Z" class="icon-fill-gray-primary" opacity=".3"/>
    <path fill="#444" d="M38.345 53v-5.586h-.935V53h.935Zm-.468-6.526c.317 0 .58-.263.58-.58a.582.582 0 0 0-1.166 0c.001.317.264.58.586.58ZM34.23 49.95c0 2.454.817 3.797 1.526 4.699h.784c-.473-.548-1.359-2.267-1.359-4.7 0-2.433.892-4.157 1.359-4.7h-.784c-.71.903-1.526 2.246-1.526 4.7ZM55.073 18h.935v-7.75h-.946L53 11.731v1.02l2.052-1.477h.021V18Zm-6.383-3.05c0-2.455.817-3.798 1.526-4.7H51c-.467.542-1.359 2.266-1.359 4.7 0 2.432.886 4.151 1.359 4.699h-.784c-.71-.902-1.526-2.245-1.526-4.7Zm-2.622 20.352c-.671 0-1.117-.35-1.117-.881 0-.526.43-.86 1.181-.908l1.494-.091v.456c0 .806-.677 1.424-1.558 1.424Zm-.21.795c.752 0 1.461-.42 1.794-1.058h.022V36h.886v-3.862c0-1.112-.827-1.82-2.138-1.82-1.32 0-2.148.74-2.212 1.707h.902c.118-.547.57-.886 1.289-.886.773 0 1.224.408 1.224 1.09v.468l-1.6.091c-1.29.075-2.025.677-2.025 1.633 0 1.004.747 1.676 1.858 1.676ZM40.69 32.95c0-2.455.817-3.798 1.526-4.7H43c-.467.542-1.359 2.266-1.359 4.7 0 2.432.886 4.151 1.359 4.699h-.784c-.71-.902-1.526-2.245-1.526-4.7Z" class="icon-fill-gray-primary"/>
  </g>
</svg>
