<svg xmlns="http://www.w3.org/2000/svg" width="24" height="24" fill="none" viewBox="0 0 24 24">
  <g class="icon-wrap-through">
    <path fill="#444" d="M22.75 20.796a.75.75 0 0 1 0 1.5h-21a.75.75 0 0 1 0-1.5h21Zm-15.85-4a2.65 2.65 0 0 0 1.67 1.425.742.742 0 0 1-.32.075h-6.5a.75.75 0 0 1 0-1.5H6.9Zm15.85 0a.75.75 0 0 1 0 1.5h-7.363a2.644 2.644 0 0 0 2.04-1.5h5.323Zm-16.102-2.5H1.75a.75.75 0 0 1 0-1.5h4.898v1.5Zm16.102-1.5a.75.75 0 0 1 0 1.5h-5.071v-1.5h5.071Zm-17.238-4c.02.45.076.953.235 1.451l.017.049H1.75a.75.75 0 0 1 0-1.5h3.762Zm17.238 0a.75.75 0 0 1 0 1.5h-2.749c.307-.417.477-.93.495-1.5h2.254Zm-9.437-4c-.34.298-.583.709-.663 1.183l-.053.317H8.353a2.065 2.065 0 0 0-1.552 0H1.75a.75.75 0 0 1 0-1.5h11.563Zm9.437 0a.75.75 0 0 1 0 1.5h-3.507a2.016 2.016 0 0 0-.553-.14 2.197 2.197 0 0 0-.317-.41 2.552 2.552 0 0 0-1.804-.749h-.402a2.05 2.05 0 0 0-.203-.201h6.786Zm0-4a.75.75 0 0 1 0 1.5h-21a.75.75 0 0 1 0-1.5h21Z" class="icon-fill-gray-primary"/>
    <path fill="#446ECA" d="m14.129 6.434-.629 3.709H9.296c-1.047 0-1.15-.88-1.152-1.721a.57.57 0 0 0-.57-.574.575.575 0 0 0-.574.574c0 1.124.084 2.118 1.148 2.868v4.589a1.147 1.147 0 1 0 2.295 0v-2.294l3.441.755v1.539a1.147 1.147 0 1 0 2.295 0v-4.274l.008-1.214a.25.25 0 0 1 .25-.248h.81c.968 0 1.752-.275 1.752-1.243v-.526a.525.525 0 0 0-.526-.526h-.766s-.198-.64-.395-.838a1.052 1.052 0 0 0-.742-.309h-1.142l-.37-.493a.519.519 0 0 0-.93.226Z" class="icon-fill-blue-primary"/>
  </g>
</svg>
