<svg xmlns="http://www.w3.org/2000/svg" width="64" height="64" fill="none" viewBox="0 0 64 64">
  <g class="icon-numbers-lower-case-letter-bracket-rtl">
    <path fill="#444" d="M43 13H8v1h35v-1Zm0 18H8v1h35v-1Zm0 18H8v1h35v-1Z" class="icon-fill-gray-primary" opacity=".3"/>
    <path fill="#444" d="M54.068 17.302c-.671 0-1.117-.35-1.117-.881 0-.526.43-.86 1.181-.908l1.494-.091v.456c0 .806-.677 1.424-1.558 1.424Zm-.21.795c.752 0 1.461-.42 1.794-1.058h.022V18h.886v-3.862c0-1.112-.827-1.82-2.138-1.82-1.32 0-2.148.74-2.212 1.707h.902c.118-.548.57-.886 1.289-.886.773 0 1.224.408 1.224 1.09v.468l-1.6.091c-1.29.075-2.025.677-2.025 1.633 0 1.004.747 1.676 1.858 1.676ZM48.69 14.95c0-2.455.817-3.798 1.526-4.7H51c-.467.542-1.359 2.266-1.359 4.7 0 2.432.886 4.151 1.359 4.699h-.784c-.71-.902-1.526-2.245-1.526-4.7Zm-.69 18c0-2.455.816-3.798 1.525-4.7h.785c-.468.542-1.36 2.266-1.36 4.7 0 2.432.887 4.151 1.36 4.699h-.785c-.709-.902-1.525-2.245-1.525-4.7Zm6.728 3.147c1.43 0 2.374-1.134 2.374-2.89 0-1.75-.95-2.89-2.357-2.89-.79 0-1.44.392-1.789 1.032h-.021v-3.1H52V36h.892v-.945h.021c.36.644 1 1.042 1.816 1.042Zm-.182-4.958c.988 0 1.6.8 1.6 2.068 0 1.278-.612 2.068-1.6 2.068-.945 0-1.617-.822-1.617-2.068 0-1.24.672-2.068 1.617-2.068Zm2.369 18.107c-.119-1.005-.951-1.929-2.348-1.929-1.541 0-2.567 1.128-2.567 2.89 0 1.8 1.031 2.89 2.578 2.89 1.268 0 2.202-.785 2.347-1.896h-.918c-.161.671-.66 1.074-1.423 1.074-.967 0-1.633-.768-1.633-2.068 0-1.267.655-2.068 1.622-2.068.822 0 1.294.5 1.428 1.107h.914Zm-8.225.704c0-2.455.817-3.798 1.526-4.7H51c-.467.542-1.359 2.266-1.359 4.7 0 2.432.886 4.151 1.359 4.699h-.784c-.71-.902-1.526-2.245-1.526-4.7Z" class="icon-fill-gray-primary"/>
  </g>
</svg>
