<svg xmlns="http://www.w3.org/2000/svg" width="64" height="64" fill="none" viewBox="0 0 64 64">
  <g class="icon-numbers-capital-letter-dot">
    <path fill="#444" d="M21 13h35v1H21v-1Zm0 18h35v1H21v-1Zm0 18h35v1H21v-1Z" class="icon-fill-gray-primary" opacity=".3"/>
    <path fill="#444" d="M11.79 18h1.016l-2.858-7.75h-.956L6.135 18H7.15l.779-2.218h3.083L11.79 18Zm-2.336-6.574h.032l1.241 3.534H8.213l1.241-3.534ZM9.68 36c1.649 0 2.626-.811 2.626-2.175 0-1.032-.677-1.773-1.73-1.907v-.043c.747-.134 1.338-.886 1.338-1.692 0-1.16-.897-1.933-2.224-1.933H6.752V36H9.68Zm-1.96-6.896h1.75c.94 0 1.466.424 1.466 1.192 0 .838-.623 1.294-1.767 1.294H7.72v-2.486Zm0 6.042v-2.723h1.723c1.236 0 1.87.456 1.87 1.353s-.613 1.37-1.778 1.37H7.719Zm2.223 17.983c-2.138 0-3.491-1.552-3.491-4.007 0-2.433 1.37-4.001 3.49-4.001 1.687 0 2.971 1.026 3.218 2.572h-.977c-.248-1.015-1.134-1.68-2.24-1.68-1.515 0-2.498 1.224-2.498 3.11 0 1.9.972 3.114 2.503 3.114 1.139 0 1.955-.547 2.235-1.493h.977c-.354 1.53-1.504 2.385-3.217 2.385ZM15 17h1v1h-1v-1Zm0 18h1v1h-1v-1Zm0 17h1v1h-1v-1Z" class="icon-fill-gray-primary"/>
  </g>
</svg>
