<svg xmlns="http://www.w3.org/2000/svg" width="64" height="64" fill="none" viewBox="0 0 64 64">
  <g class="icon-numbers-lower-case-roman-numeral">
    <path fill="#444" d="M21 13h35v1H21v-1Zm0 18h35v1H21v-1Zm0 18h35v1H21v-1Z" class="icon-fill-gray-primary" opacity=".3"/>
    <path fill="#444" d="M7 12h1v6H7v-6Zm0-2h1v1H7v-1Zm3 7h1v1h-1v-1ZM7 30h1v6H7v-6Zm3 0h1v6h-1v-6Zm0-2h1v1h-1v-1Zm-3 0h1v1H7v-1Zm6 7h1v1h-1v-1ZM7 47h1v6H7v-6Zm3 0h1v6h-1v-6Zm3 0h1v6h-1v-6Zm-6-2h1v1H7v-1Zm3 0h1v1h-1v-1Zm3 0h1v1h-1v-1Zm3 7h1v1h-1v-1Z" class="icon-fill-gray-primary"/>
  </g>
</svg>
