<svg xmlns="http://www.w3.org/2000/svg" width="24" height="24" fill="none" viewBox="0 0 24 24">
  <g class="icon-cell-style">
    <path stroke="#444" stroke-linejoin="round" stroke-width="1.5" d="M9.5 5.5v4m0-4h-3a1 1 0 0 0-1 1v3m4-4h7a1 1 0 0 1 1 1v2a1 1 0 0 1-1 1h-7m0 0h-4m4 0v7a1 1 0 0 1-1 1h-2a1 1 0 0 1-1-1v-7" class="icon-stroke-gray-primary"/>
    <path fill="#40865C" fill-rule="evenodd" d="M19.935 10.148a1 1 0 0 1 1.288-.017l.073.066.467.467a1 1 0 0 1 .049 1.363l-5.19 5.985c-.01.068-.305 2.023-2.783 3.262-2.001 1-4.794.017-5.863-.433-.1-.042-.068-.244.036-.274.592-.176 1.633-.75 2.509-2.613 1.248-2.654 3.232-2.629 3.413-2.62l6-5.186Zm-4.75 6.088.532.532 3.43-3.958-3.962 3.426Z" class="icon-fill-green-brend-primary" clip-rule="evenodd"/>
  </g>
</svg>
