<svg xmlns="http://www.w3.org/2000/svg" width="24" height="24" fill="none" viewBox="0 0 24 24">
  <g class="draw">
    <path fill="#444" d="M6.827 4.795c2.16-.783 4.344-.668 6.38-.003l-1.213 1.213c-1.541-.374-3.118-.356-4.648.196-1.759.698-2.878 1.692-3.525 2.79-.65 1.101-.857 2.367-.692 3.664.332 2.62 2.177 5.294 4.73 6.687a.75.75 0 0 1-.719 1.316c-2.947-1.608-5.103-4.685-5.5-7.813-.2-1.578.047-3.188.889-4.617.844-1.43 2.252-2.624 4.277-3.425l.01-.004.01-.004Zm13.396 5.101c.733 1.074 1.182 2.184 1.369 3.278.375 2.202-.327 4.274-1.803 5.69-2.09 2.003-5.572 2.571-9.41.698l.328-.674.329-.673c3.402 1.66 6.174 1.043 7.714-.434 1.106-1.061 1.657-2.629 1.363-4.355-.134-.784-.447-1.612-.974-2.446l1.084-1.084Z" class="icon-fill-gray-primary"/>
    <path stroke="#444" stroke-linecap="round" stroke-linejoin="round" stroke-width="1.5" d="m14.5 6.5-7 7v3h3l7-7m-3-3 2.293-2.293a1 1 0 0 1 1.414 0l1.586 1.586a1 1 0 0 1 0 1.414L17.5 9.5m-3-3 3 3" class="icon-stroke-gray-primary"/>
  </g>
</svg>
