<svg xmlns="http://www.w3.org/2000/svg" width="64" height="64" fill="none" viewBox="0 0 64 64">
  <g class="icon-numbers-lower-case-letter-dot-rtl">
    <path fill="#444" d="M8 13h35v1H8v-1Zm0 18h35v1H8v-1Zm0 18h35v1H8v-1Z" class="icon-fill-gray-primary" opacity=".3"/>
    <path fill="#444" d="M54.45 17.302c-.672 0-1.118-.35-1.118-.881 0-.526.43-.86 1.182-.908l1.493-.091v.456c0 .806-.677 1.424-1.558 1.424Zm-.21.795c.752 0 1.46-.42 1.794-1.058h.021V18h.886v-3.862c0-1.112-.827-1.82-2.137-1.82-1.322 0-2.149.74-2.213 1.707h.902c.118-.548.57-.886 1.29-.886.773 0 1.224.408 1.224 1.09v.468l-1.6.091c-1.29.075-2.026.677-2.026 1.633 0 1.004.747 1.676 1.859 1.676Zm1.144 18c1.428 0 2.374-1.134 2.374-2.89 0-1.75-.95-2.89-2.358-2.89-.79 0-1.44.392-1.789 1.032h-.021v-3.1h-.935V36h.892v-.945h.021c.36.644 1 1.042 1.816 1.042Zm-.183-4.958c.989 0 1.6.8 1.6 2.068 0 1.278-.611 2.068-1.6 2.068-.945 0-1.617-.822-1.617-2.068 0-1.24.672-2.068 1.617-2.068Zm2.047 18.107c-.119-1.005-.951-1.929-2.348-1.929-1.541 0-2.567 1.128-2.567 2.89 0 1.8 1.031 2.89 2.578 2.89 1.268 0 2.202-.785 2.347-1.896h-.918c-.161.671-.66 1.074-1.424 1.074-.966 0-1.632-.768-1.632-2.068 0-1.267.655-2.068 1.622-2.068.822 0 1.294.5 1.428 1.107h.914ZM50 17h1v1h-1v-1Zm0 18h1v1h-1v-1Zm0 17h1v1h-1v-1Z" class="icon-fill-gray-primary"/>
  </g>
</svg>
