<svg xmlns="http://www.w3.org/2000/svg" width="24" height="24" fill="none" viewBox="0 0 24 24">
  <g class="icon-wrap-top-bottom">
    <path stroke="#444" stroke-linecap="round" stroke-width="1.5" d="M1.75 1.546h21m-21 20h21" class="icon-stroke-gray-primary"/>
    <path fill="#446ECA" d="M14.642 5.796a.52.52 0 0 1 .416.208l.37.493h1.141c.279 0 .546.111.744.309.197.197.394.839.394.839h.767c.29 0 .525.234.525.525v.526c0 .968-.785 1.242-1.753 1.242h-.81a.25.25 0 0 0-.25.25L16.18 11.4v4.274a1.147 1.147 0 1 1-2.294 0v-1.538l-3.442-.756v2.294a1.148 1.148 0 0 1-2.295 0v-4.59C7.085 10.337 7.002 9.342 7 8.219c0-.317.258-.573.575-.573a.57.57 0 0 1 .569.573c.001.84.106 1.72 1.152 1.72H13.5l.629-3.709a.52.52 0 0 1 .513-.433Z" class="icon-fill-blue-primary"/>
  </g>
</svg>
