<svg xmlns="http://www.w3.org/2000/svg" width="24" height="24" fill="none" viewBox="0 0 24 24">
  <g class="icon-wrap-tight">
    <path fill="#444" d="M22.75 20.796a.75.75 0 0 1 0 1.5h-21a.75.75 0 0 1 0-1.5h21Zm-15.85-4a2.645 2.645 0 0 0 2.041 1.5H1.75a.75.75 0 0 1 0-1.5H6.9Zm5.737 0a2.646 2.646 0 0 0 2.043 1.5H9.652a2.644 2.644 0 0 0 2.04-1.5h.945Zm10.113 0a.75.75 0 0 1 0 1.5h-7.363a2.644 2.644 0 0 0 2.04-1.5h5.323Zm-16.102-2.5H1.75a.75.75 0 0 1 0-1.5h4.898v1.5Zm16.102-1.5a.75.75 0 0 1 0 1.5h-5.071v-1.5h5.071Zm-17.238-4c.02.45.076.953.235 1.451l.017.049H1.75a.75.75 0 0 1 0-1.5h3.762Zm17.238 0a.75.75 0 0 1 0 1.5h-2.749c.307-.417.477-.93.495-1.5h2.254Zm-9.437-4c-.34.298-.583.709-.663 1.183l-.053.317H8.353a2.065 2.065 0 0 0-1.552 0H1.75a.75.75 0 0 1 0-1.5h11.563Zm9.437 0a.75.75 0 0 1 0 1.5h-3.507a2.016 2.016 0 0 0-.553-.14 2.202 2.202 0 0 0-.317-.41 2.552 2.552 0 0 0-1.804-.749h-.402a2.05 2.05 0 0 0-.203-.201h6.786Zm0-4a.75.75 0 0 1 0 1.5h-21a.75.75 0 0 1 0-1.5h21Z" class="icon-fill-gray-primary"/>
    <path fill="#446ECA" d="M14.642 5.796a.52.52 0 0 1 .416.208l.37.493h1.141c.279 0 .546.111.744.309.197.197.394.839.394.839h.767c.29 0 .525.234.525.525v.526c0 .968-.785 1.242-1.753 1.242h-.81a.25.25 0 0 0-.25.25L16.18 11.4v4.274a1.147 1.147 0 1 1-2.294 0v-1.538l-3.443-.756v2.294a1.147 1.147 0 1 1-2.294 0v-4.59C7.085 10.337 7.002 9.342 7 8.219c0-.317.258-.573.575-.573a.57.57 0 0 1 .569.573c.001.84.106 1.72 1.152 1.72H13.5l.629-3.709a.52.52 0 0 1 .513-.433Z" class="icon-fill-blue-primary"/>
  </g>
</svg>
