<svg xmlns="http://www.w3.org/2000/svg" width="24" height="24" fill="none" viewBox="0 0 24 24">
  <g class="icon-wrap-table-flow">
    <path stroke="#444" stroke-linecap="round" stroke-width="1.5" d="M1.75 1.546h20.533M1.75 4.479h20.533M1.75 19.146h20.533M1.75 22.079h20.533M1.75 16.213h2.933M1.75 13.279h2.933M1.75 10.346h2.933M1.75 7.413h2.933m14.667 8.8h2.933m-2.933-2.934h2.933m-2.933-2.933h2.933M19.35 7.413h2.933" class="icon-stroke-gray-primary"/>
    <path fill="#446ECA" d="M16 6.796a1 1 0 0 1 1 1v8a1 1 0 0 1-1 1H8a1 1 0 0 1-1-1v-8a1 1 0 0 1 1-1h8Z" class="icon-fill-blue-primary"/>
  </g>
</svg>
