<svg xmlns="http://www.w3.org/2000/svg" width="24" height="24" fill="none" viewBox="0 0 24 24">
  <g class="icon-wrap-square">
    <path fill="#446ECA" d="M14.129 6.23 13.5 9.939H9.296c-1.047 0-1.15-.88-1.152-1.721a.57.57 0 0 0-.57-.574.575.575 0 0 0-.574.574c.002 1.124.085 2.118 1.148 2.868v4.589a1.147 1.147 0 0 0 2.295 0V13.38l3.441.756v1.539a1.147 1.147 0 1 0 2.295 0V11.4l.008-1.214a.25.25 0 0 1 .25-.248h.81c.968 0 1.752-.275 1.752-1.243V8.17a.525.525 0 0 0-.526-.526h-.766s-.198-.64-.395-.838a1.052 1.052 0 0 0-.742-.31h-1.142l-.37-.492a.519.519 0 0 0-.93.226Z" class="icon-fill-blue-primary"/>
    <path stroke="#444" stroke-linecap="round" stroke-width="1.5" d="M1.75 1.546h21m-21 4h2m-2 4h2m-2 4h2m-2 4h2m-2 4h21m-2-16h2m-2 4h2m-2 4h2m-2 4h2" class="icon-stroke-gray-primary"/>
  </g>
</svg>
