<svg xmlns="http://www.w3.org/2000/svg" width="24" height="24" fill="none" viewBox="0 0 24 24">
  <g class="icon-wrap-behind">
    <path fill="#444" d="m14.13 6.23-.63 3.709H9.297c-1.046 0-1.15-.88-1.152-1.721a.57.57 0 0 0-.569-.574.575.575 0 0 0-.575.574c.002 1.124.085 2.118 1.149 2.868v4.589a1.147 1.147 0 0 0 2.294 0V13.38l3.442.756v1.539a1.147 1.147 0 1 0 2.294 0V11.4l.008-1.214a.25.25 0 0 1 .25-.248h.81c.968 0 1.753-.275 1.753-1.243V8.17a.525.525 0 0 0-.526-.526h-.767s-.197-.64-.394-.838a1.052 1.052 0 0 0-.743-.309h-1.142l-.37-.493a.519.519 0 0 0-.929.226Z" class="icon-fill-gray-primary" opacity=".5"/>
    <path stroke="#444" stroke-linecap="round" stroke-width="1.5" d="M1.75 1.546h21m-21 4h21m-21 4h21m-21 4h21m-21 4h21m-21 4h21" class="icon-stroke-gray-primary"/>
  </g>
</svg>
