<svg xmlns="http://www.w3.org/2000/svg" width="24" height="24" viewBox="0 0 24 24" stroke="currentColor" stroke-linecap="round" stroke-linejoin="round" fill="none">
    <path d="M6 20H5v-1h1zm2 0H7v-1h1zm2 0H9v-1h1zm2 0h-1v-1h1zm2 0h-1v-1h1zm2 0h-1v-1h1zm2 0h-1v-1h1zm2 0h-1v-1h1zM6 18H5v-1h1zm7 0h-1v-1h1zm7 0h-1v-1h1zM6 16H5v-1h1zm14 0h-1v-1h1zm-7-1h-1v-1h1zm-7-1H5v-1h1zm14 0h-1v-1h1zM6 12H5v-1h1zm14 0h-1v-1h1zm-7-1h-1v-1h1zm-7-1H5V9h1zm14 0h-1V9h1zM6 8H5V7h1zm7 0h-1V7h1zm7 0h-1V7h1zM6 6H5V5h1zm2 0H7V5h1zm2 0H9V5h1zm2 0h-1V5h1zm2 0h-1V5h1zm2 0h-1V5h1zm2 0h-1V5h1zm2 0h-1V5h1z" stroke="none" fill="currentColor" class="icon-fill-gray-secondary"/>
    <path d="M17.5 12.5h-10" class="icon-stroke-gray-primary"/>
</svg>
