<svg xmlns="http://www.w3.org/2000/svg" width="64" height="64" fill="none" viewBox="0 0 64 64">
  <g class="icon-numbers-capital-letter-dot-rtl">
    <path fill="#444" d="M43 13H8v1h35v-1Zm0 18H8v1h35v-1Zm0 18H8v1h35v-1Z" class="icon-fill-gray-primary" opacity=".3"/>
    <path fill="#444" d="M55.79 18h1.015l-2.857-7.75h-.956L50.134 18h1.015l.78-2.218h3.082L55.79 18Zm-2.336-6.574h.032l1.24 3.534h-2.513l1.24-3.534ZM53.68 36c1.648 0 2.626-.811 2.626-2.175 0-1.032-.677-1.773-1.73-1.907v-.043c.747-.134 1.338-.886 1.338-1.692 0-1.16-.897-1.933-2.224-1.933h-2.938V36h2.927Zm-1.961-6.896h1.75c.94 0 1.467.424 1.467 1.192 0 .838-.623 1.294-1.767 1.294h-1.45v-2.486Zm0 6.042v-2.723h1.724c1.235 0 1.869.456 1.869 1.353s-.612 1.37-1.778 1.37H51.72Zm1.223 17.983c1.714 0 2.863-.854 3.218-2.385h-.978c-.28.946-1.096 1.493-2.234 1.493-1.531 0-2.503-1.214-2.503-3.115 0-1.885.983-3.11 2.497-3.11 1.107 0 1.993.666 2.24 1.681h.978c-.247-1.546-1.531-2.572-3.218-2.572-2.121 0-3.49 1.568-3.49 4.001 0 2.455 1.353 4.007 3.49 4.007ZM48 17h-1v1h1v-1Zm0 18h-1v1h1v-1Zm0 17h-1v1h1v-1Z" class="icon-fill-gray-primary"/>
  </g>
</svg>
