<svg xmlns="http://www.w3.org/2000/svg" width="64" height="64" fill="none" viewBox="0 0 64 64">
  <g class="icon-numbers-numeral-bracket-rtl">
    <path fill="#444" d="M43 13H8v1h35v-1Zm0 18H8v1h35v-1Zm0 18H8v1h35v-1Z" class="icon-fill-gray-primary" opacity=".3"/>
    <path fill="#444" d="M55.073 18h.935v-7.75h-.946L53 11.731v1.02l2.052-1.477h.021V18ZM52 30.484v.005h.935v-.005c0-.865.687-1.52 1.595-1.52.854 0 1.536.596 1.536 1.343 0 .644-.247 1.058-1.29 2.153l-2.728 2.874V36h5.114v-.86h-3.776v-.02l1.96-2.026c1.295-1.337 1.687-1.982 1.687-2.846 0-1.188-1.09-2.127-2.476-2.127-1.461 0-2.557 1.01-2.557 2.363Zm1.713 18.939h.972c1.107 0 1.794.564 1.794 1.477 0 .81-.735 1.391-1.761 1.391-1.042 0-1.703-.548-1.789-1.343H52c.07 1.284 1.106 2.18 2.728 2.18 1.52 0 2.734-.928 2.734-2.26 0-1.09-.752-1.816-1.922-1.886v-.021c.966-.172 1.59-.87 1.59-1.842 0-1.166-1.048-1.998-2.434-1.998-1.455 0-2.433.843-2.54 2.159h.929c.086-.811.677-1.322 1.568-1.322.983 0 1.504.522 1.504 1.29 0 .784-.623 1.358-1.514 1.358h-.93v.817ZM48.69 14.95c0-2.455.817-3.798 1.526-4.7H51c-.467.542-1.359 2.266-1.359 4.7 0 2.432.886 4.151 1.359 4.699h-.784c-.71-.902-1.526-2.245-1.526-4.7Zm-.69 18c0-2.455.816-3.798 1.525-4.7h.785c-.468.542-1.36 2.266-1.36 4.7 0 2.432.887 4.151 1.36 4.699h-.785c-.709-.902-1.525-2.245-1.525-4.7Zm.69 17c0-2.455.817-3.798 1.526-4.7H51c-.467.542-1.359 2.266-1.359 4.7 0 2.432.886 4.151 1.359 4.699h-.784c-.71-.902-1.526-2.245-1.526-4.7Z" class="icon-fill-gray-primary"/>
  </g>
</svg>
