<svg xmlns="http://www.w3.org/2000/svg" width="64" height="64" fill="none" viewBox="0 0 64 64">
  <g class="icon-numbers-numeral-bracket">
    <path fill="#444" d="M21 13h35v1H21v-1Zm0 18h35v1H21v-1Zm0 18h35v1H21v-1Z" class="icon-fill-gray-primary" opacity=".3"/>
    <path fill="#444" d="M8.605 18h.935v-7.75h-.946l-2.062 1.482v1.02l2.052-1.477h.021V18Zm4.796-3.05c0-2.455-.816-3.798-1.525-4.7h-.784c.467.542 1.359 2.266 1.359 4.7 0 2.432-.886 4.151-1.36 4.699h.785c.709-.902 1.525-2.245 1.525-4.7ZM6.58 30.484v.005h.935v-.005c0-.865.687-1.52 1.595-1.52.854 0 1.536.596 1.536 1.343 0 .644-.247 1.058-1.29 2.153l-2.728 2.874V36h5.114v-.86H7.966v-.02l1.96-2.026c1.295-1.337 1.687-1.982 1.687-2.846 0-1.188-1.09-2.127-2.476-2.127-1.461 0-2.557 1.01-2.557 2.363Zm8.175 2.466c0-2.455-.817-3.798-1.526-4.7h-.784c.468.542 1.36 2.266 1.36 4.7 0 2.432-.887 4.151-1.36 4.699h.784c.71-.902 1.526-2.245 1.526-4.7ZM8.208 49.423h.972c1.106 0 1.794.564 1.794 1.477 0 .81-.736 1.391-1.762 1.391-1.042 0-1.703-.548-1.789-1.343h-.929c.07 1.284 1.107 2.18 2.729 2.18 1.52 0 2.733-.928 2.733-2.26 0-1.09-.751-1.816-1.922-1.886v-.021c.966-.172 1.59-.87 1.59-1.842 0-1.166-1.048-1.998-2.434-1.998-1.455 0-2.433.843-2.54 2.159h.93c.085-.811.676-1.322 1.567-1.322.983 0 1.504.522 1.504 1.29 0 .784-.623 1.358-1.514 1.358h-.93v.817Zm6.826.527c0-2.455-.816-3.798-1.525-4.7h-.784c.467.542 1.359 2.266 1.359 4.7 0 2.432-.887 4.151-1.36 4.699h.785c.709-.902 1.525-2.245 1.525-4.7Z" class="icon-fill-gray-primary"/>
  </g>
</svg>
