<svg xmlns="http://www.w3.org/2000/svg" width="56" height="56" fill="none" viewBox="0 0 56 56">
  <g class="shape-cloud">
    <path fill="#555" d="M6 47.996a2 2 0 1 1 0 4 2 2 0 0 1 0-4Zm6.5-7a3.5 3.5 0 1 1 0 7 3.5 3.5 0 0 1 0-7Zm11.417-37c3.812 0 7.027 2.521 8.041 5.97a11.107 11.107 0 0 1 8.957-4.508C47.037 5.458 52 10.369 52 16.427c0 2.725-1.007 5.216-2.669 7.134A8.703 8.703 0 0 1 52 29.834c0 4.846-3.97 8.774-8.868 8.774-1.18 0-2.305-.23-3.335-.644a12.338 12.338 0 0 1-9.968 5.032 12.339 12.339 0 0 1-9.687-4.665 6.912 6.912 0 0 1-4.6 1.741c-3.81 0-6.898-3.056-6.898-6.825a6.8 6.8 0 0 1 3.025-5.65c-3.447-.932-5.982-4.05-5.982-7.757 0-4.443 3.64-8.044 8.13-8.044.595 0 1.174.066 1.732.185.16-4.437 3.845-7.985 8.368-7.985Z" class="icon-fill-type-preview"/>
  </g>
</svg>
