<svg width="28" height="28" viewBox="0 0 28 28" fill="none" xmlns="http://www.w3.org/2000/svg">
    <path d="M25 23H3V5h22zM4 22h20V6H4z" fill="#000"/>
    <path opacity=".1" d="M12 7v3.879l-2.56 2.56-.067.073-.062.076-.059.08-.057.094a1.5 1.5 0 0 0-.19.627L9 14.5c0 .26.068.515.195.738l.057.094a1 1 0 0 0 .059.08l.062.076q.032.039.067.072L12 18.121V21H5V7z" fill="#000"/>
    <path d="M18 21h-6v-2.879l.44.44.07.064.078.064.086.064a1.5 1.5 0 0 0 1.787-.102l.1-.09a1.5 1.5 0 0 0 .192-1.887l-.063-.086-.065-.078-.064-.07-.44-.44h3.88zm0-14v6h-3.879l.44-.44a1.5 1.5 0 0 0 0-2.12l-.114-.104a1.5 1.5 0 0 0-1.893 0l-.114.104-.44.439V7z" opacity=".2" fill="#000"/>
    <path opacity=".4" d="M23 7v14h-5v-5h.5a1.5 1.5 0 0 0 1.492-1.347L20 14.5l-.008-.153A1.5 1.5 0 0 0 18.5 13H18V7z" fill="#000"/>
    <path d="m14.207 11.5-2.5 2.5H19v1h-7.293l2.5 2.5-.707.707L9.793 14.5l3.707-3.707z" fill="#000"/>
</svg>
