<svg xmlns="http://www.w3.org/2000/svg" width="28" height="28" viewBox="0 0 28 28" stroke="currentColor" stroke-linecap="round" stroke-linejoin="round" fill="none">
    <path d="M24.5 21.5v-15a1 1 0 0 0-1-1h-19a1 1 0 0 0-1 1v15a1 1 0 0 0 1 1h19a1 1 0 0 0 1-1Z" class="icon-stroke-gray-primary"/>
    <g fill="currentColor" stroke="none" class="icon-fill-blue-primary">
      <path d="M14 10a4 4 0 1 1 0 8 4 4 0 0 1 0-8Zm0 1a3 3 0 1 0 0 6 3 3 0 0 0 0-6Z"/>
      <path d="M14 8a6 6 0 1 1 0 12 6 6 0 0 1 0-12Zm0 1a5 5 0 1 0 0 10 5 5 0 0 0 0-10Z"/>
      <path d="M24 22H4V6h20v16ZM14 7a7 7 0 1 0 0 14 7 7 0 0 0 0-14Z"/>
    </g>
    <g fill="currentColor" stroke="none" class="icon-fill-blue-secondary">
      <path d="M14 12a2 2 0 1 1 0 4 2 2 0 0 1 0-4Z"/>
      <path d="M14 9a5 5 0 1 1 0 10 5 5 0 0 1 0-10Zm0 1a4 4 0 1 0 0 8 4 4 0 0 0 0-8Z"/>
    </g>
</svg>
