<svg xmlns="http://www.w3.org/2000/svg" width="28" height="28" viewBox="0 0 28 28" stroke="currentColor" stroke-linecap="round" stroke-linejoin="round" fill="none">
    <path d="M24.5 21.5v-15a1 1 0 0 0-1-1h-19a1 1 0 0 0-1 1v15a1 1 0 0 0 1 1h19a1 1 0 0 0 1-1Z" class="icon-stroke-gray-primary"/>
    <path stroke-width="2" d="M19.143 14a5.143 5.143 0 1 1-10.286 0 5.143 5.143 0 0 1 10.286 0Z" class="icon-stroke-blue-primary"/>
    <path stroke-width="2" d="M17.2 14a3.2 3.2 0 1 1-6.4 0 3.2 3.2 0 0 1 6.4 0Z" class="icon-stroke-blue-secondary"/>
</svg>
