<svg xmlns="http://www.w3.org/2000/svg" width="28" height="28" viewBox="0 0 28 28" stroke="currentColor" stroke-linecap="round" stroke-linejoin="round" fill="none">
    <path d="M6 10.207a.5.5 0 1 1 1 0v7.586a.5.5 0 0 1-1 0v-7.586Zm7 0a.5.5 0 1 1 1 0v7.585a.5.5 0 0 1-1 0v-7.585Zm7-.001a.5.5 0 0 1 1 0v7.586a.5.5 0 1 1-1 0v-7.586Z" fill="currentColor" stroke="none" class="icon-fill-blue-primary"/>
    <path d="M4.5 20.5v-13a.5.5 0 0 1 .8-.4l3 2.25a.5.5 0 0 1 .2.4v8.5a.5.5 0 0 1-.2.4l-3 2.25a.5.5 0 0 1-.8-.4Zm7 0v-13a.5.5 0 0 1 .8-.4l3 2.25a.5.5 0 0 1 .2.4v8.5a.5.5 0 0 1-.2.4l-3 2.25a.5.5 0 0 1-.8-.4Zm7 0v-13a.5.5 0 0 1 .8-.4l3 2.25a.5.5 0 0 1 .2.4v8.5a.5.5 0 0 1-.2.4l-3 2.25a.5.5 0 0 1-.8-.4Z" class="icon-stroke-gray-primary"/>
</svg>
