<svg xmlns="http://www.w3.org/2000/svg" width="28" height="28" viewBox="0 0 28 28" stroke="currentColor" stroke-linecap="round" stroke-linejoin="round" fill="none">
    <path d="M18.5 15.5v-3a1 1 0 0 0-1-1h-7a1 1 0 0 0-1 1v3a1 1 0 0 0 1 1h7a1 1 0 0 0 1-1Z" fill="currentColor" stroke="none" class="icon-fill-blue-secondary"/>
    <path d="M24.5 21.5v-15a1 1 0 0 0-1-1h-19a1 1 0 0 0-1 1v15a1 1 0 0 0 1 1h19a1 1 0 0 0 1-1Z" class="icon-stroke-gray-primary"/>
    <path d="M8.5 7.5h-3m0 0v3m0-3 3 3m0 10h-3m0 0v-3m0 3 3-3m11-10h3m0 0v3m0-3-3 3m0 10h3m0 0v-3m0 3-3-3m-1.5-6h-8a.5.5 0 0 0-.5.5v4a.5.5 0 0 0 .5.5h8a.5.5 0 0 0 .5-.5v-4a.5.5 0 0 0-.5-.5Z" class="icon-stroke-gray-primary"/>
</svg>
