<svg xmlns="http://www.w3.org/2000/svg" width="24" height="24" fill="none" viewBox="0 0 24 24">
  <g class="icon-format-time">
    <path fill="#444" d="M12.75 5.296a.75.75 0 0 0-1.5 0h1.5ZM7 11.046a.75.75 0 0 0 0 1.5v-1.5Zm5 .75v.75a.75.75 0 0 0 .75-.75H12Zm1 0h-.75a.25.25 0 0 1-.25.25v1.5a1.75 1.75 0 0 0 1.75-1.75H13Zm-1 1v-.75a.25.25 0 0 1-.25-.25h-1.5c0 .966.784 1.75 1.75 1.75v-.75Zm-1-1h.75a.25.25 0 0 1 .25-.25v-1.5a1.75 1.75 0 0 0-1.75 1.75H11Zm1-1v.75a.25.25 0 0 1 .25.25h1.5a1.75 1.75 0 0 0-1.75-1.75v.75Zm9.375 1h-.75A8.625 8.625 0 0 1 12 20.42v1.5c5.592 0 10.125-4.533 10.125-10.125h-.75ZM12 21.17v-.75a8.625 8.625 0 0 1-8.625-8.625h-1.5C1.875 17.388 6.408 21.92 12 21.92v-.75Zm-9.375-9.375h.75A8.625 8.625 0 0 1 12 3.17v-1.5c-5.592 0-10.125 4.533-10.125 10.125h.75ZM12 2.42v.75a8.625 8.625 0 0 1 8.625 8.625h1.5C22.125 6.204 17.592 1.67 12 1.67v.75Zm0 2.875h-.75v6.5h1.5v-6.5H12Zm0 6.5v-.75H7v1.5h5v-.75Z" class="icon-stroke-gray-primary"/>
  </g>
</svg>
