<svg xmlns="http://www.w3.org/2000/svg" width="24" height="24" fill="none" viewBox="0 0 24 24">
  <g class="icon-format-general">
    <path stroke="#444" stroke-linecap="round" stroke-linejoin="round" stroke-miterlimit="1.414" stroke-width="1.5" d="m3.75 15.546 2-2v6m7.667-.333h-3.102a.397.397 0 0 1-.255-.703l2.786-2.32a1.589 1.589 0 0 0-1.018-2.81h-.16a1.75 1.75 0 0 0-1.75 1.75M17 13.295h2.57a.43.43 0 0 1 .43.43.773.773 0 0 1-.226.546l-2.024 2.024h.75a1.5 1.5 0 0 1 0 3H17m3.5-10c-.306.613-.933 1-1.618 1H18.5a2 2 0 0 1-2-2v-2a2 2 0 0 1 2-2h.382c.685 0 1.312.387 1.618 1M10.5 7.3h1.492m-1.492 0v2.995h2.502a1.497 1.497 0 1 0 0-2.995h-1.01m-1.492 0V4.285h1.492a1.508 1.508 0 1 1 0 3.016m-8.215 3.106.606-1.667m0 0L6 4.296 7.616 8.74m-3.233 0h3.233m0 0 .606 1.667" class="icon-stroke-gray-primary"/>
  </g>
</svg>
