<svg xmlns="http://www.w3.org/2000/svg" width="24" height="24" fill="none" viewBox="0 0 24 24">
  <g class="icon-review">
    <path stroke="#444" stroke-linecap="round" stroke-linejoin="round" stroke-width="1.5" d="M19.5 5.499V3.495a1 1 0 0 0-1-1h-13a1 1 0 0 0-1 1V20.5a1 1 0 0 0 1 1h13a1 1 0 0 0 1-1v-3.75" class="icon-stroke-gray-primary"/>
    <path stroke="#446ECA" stroke-linecap="round" stroke-linejoin="round" stroke-width="1.5" d="M18.597 9.97 14 14.565v1.97h1.97l4.597-4.597m-1.97-1.97 1.263-1.263a1 1 0 0 1 1.414 0l.556.556a1 1 0 0 1 0 1.414l-1.263 1.263m-1.97-1.97 1.97 1.97M9 7.5h6m-6 4h4m-4 4h1" class="icon-stroke-blue-primary"/>
  </g>
</svg>
