<svg xmlns="http://www.w3.org/2000/svg" width="24" height="24" fill="none" viewBox="0 0 24 24">
  <g class="icon-image-library">
    <g class="back">
      <g class="back">
        <rect width="5.4" height="10.5" x="9.3" y=".7" fill="#fff" class="Rectangle" rx="2.7"/>
      </g>
      <g class="back">
        <rect width="5.4" height="10.5" x="2.101" y="5.919" fill="#fff" class="Rectangle" rx="2.7" transform="rotate(-45 2.1 5.919)"/>
      </g>
      <g class="back">
        <rect width="5.4" height="10.5" x=".7" y="14.7" fill="#fff" class="Rectangle" rx="2.7" transform="rotate(-90 .7 14.7)"/>
      </g>
      <g class="back">
        <rect width="5.4" height="10.5" x="5.919" y="21.899" fill="#fff" class="Rectangle" rx="2.7" transform="rotate(-135 5.92 21.9)"/>
      </g>
      <g class="back">
        <rect width="5.4" height="10.5" x="14.7" y="23.3" fill="#fff" class="Rectangle" rx="2.7" transform="rotate(-180 14.7 23.3)"/>
      </g>
      <g class="back">
        <rect width="5.4" height="10.5" x="21.899" y="18.081" fill="#fff" class="Rectangle" rx="2.7" transform="rotate(135 21.9 18.081)"/>
      </g>
      <g class="back">
        <rect width="5.4" height="10.5" x="23.3" y="9.3" fill="#fff" class="Rectangle" rx="2.7" transform="rotate(90 23.3 9.3)"/>
      </g>
      <g class="back">
        <rect width="5.4" height="10.5" x="18.081" y="2.101" fill="#fff" class="Rectangle" rx="2.7" transform="rotate(45 18.08 2.1)"/>
      </g>
    </g>
    <g class="color">
      <g class="color">
        <rect width="5.4" height="10.5" x="9.3" y=".7" fill="url(#a)" class="Rectangle" rx="2.7" style="mix-blend-mode:multiply"/>
      </g>
      <g class="color">
        <rect width="5.4" height="10.5" x="2.101" y="5.919" fill="url(#b)" class="Rectangle" rx="2.7" style="mix-blend-mode:multiply" transform="rotate(-45 2.1 5.919)"/>
      </g>
      <g class="color">
        <rect width="5.4" height="10.5" x=".7" y="14.7" fill="url(#c)" class="Rectangle" rx="2.7" style="mix-blend-mode:multiply" transform="rotate(-90 .7 14.7)"/>
      </g>
      <g class="color">
        <rect width="5.4" height="10.5" x="5.919" y="21.899" fill="url(#d)" class="Rectangle" rx="2.7" style="mix-blend-mode:multiply" transform="rotate(-135 5.92 21.9)"/>
      </g>
      <g class="color">
        <rect width="5.4" height="10.5" x="14.7" y="23.3" fill="url(#e)" class="Rectangle" rx="2.7" style="mix-blend-mode:multiply" transform="rotate(-180 14.7 23.3)"/>
      </g>
      <g class="color">
        <rect width="5.4" height="10.5" x="21.899" y="18.081" fill="url(#f)" class="Rectangle" rx="2.7" style="mix-blend-mode:multiply" transform="rotate(135 21.9 18.081)"/>
      </g>
      <g class="color">
        <rect width="5.4" height="10.5" x="23.3" y="9.3" fill="url(#g)" class="Rectangle" rx="2.7" style="mix-blend-mode:multiply" transform="rotate(90 23.3 9.3)"/>
      </g>
      <g class="color">
        <rect width="5.4" height="10.5" x="18.081" y="2.101" fill="url(#h)" class="Rectangle" rx="2.7" style="mix-blend-mode:multiply" transform="rotate(45 18.08 2.1)"/>
      </g>
    </g>
  </g>
  <defs>
    <linearGradient id="a" x1="12" x2="12" y1=".7" y2="11.2" class="a" gradientUnits="userSpaceOnUse">
      <stop offset=".144" stop-color="#F67812"/>
      <stop offset="1" stop-color="#F67812" stop-opacity=".5"/>
    </linearGradient>
    <linearGradient id="b" x1="4.801" x2="4.801" y1="5.919" y2="16.419" class="b" gradientUnits="userSpaceOnUse">
      <stop offset=".144" stop-color="#E73332"/>
      <stop offset="1" stop-color="#E73332" stop-opacity=".5"/>
    </linearGradient>
    <linearGradient id="c" x1="3.4" x2="3.4" y1="14.7" y2="25.2" class="c" gradientUnits="userSpaceOnUse">
      <stop offset=".144" stop-color="#B24C74"/>
      <stop offset="1" stop-color="#F67812" stop-opacity=".5"/>
      <stop offset="1" stop-color="#B24C74" stop-opacity=".5"/>
    </linearGradient>
    <linearGradient id="d" x1="8.619" x2="8.619" y1="21.899" y2="32.399" class="d" gradientUnits="userSpaceOnUse">
      <stop offset=".144" stop-color="#72579C"/>
      <stop offset="1" stop-color="#72579C" stop-opacity=".5"/>
    </linearGradient>
    <linearGradient id="e" x1="17.4" x2="17.4" y1="23.3" y2="33.8" class="e" gradientUnits="userSpaceOnUse">
      <stop offset=".144" stop-color="#417ABF"/>
      <stop offset="1" stop-color="#417ABF" stop-opacity=".5"/>
    </linearGradient>
    <linearGradient id="f" x1="24.599" x2="24.599" y1="18.081" y2="28.581" class="f" gradientUnits="userSpaceOnUse">
      <stop offset=".144" stop-color="#399A65"/>
      <stop offset="1" stop-color="#399A65" stop-opacity=".5"/>
    </linearGradient>
    <linearGradient id="g" x1="26" x2="26" y1="9.3" y2="19.8" class="g" gradientUnits="userSpaceOnUse">
      <stop offset=".144" stop-color="#88B828"/>
      <stop offset="1" stop-color="#88B828" stop-opacity=".5"/>
    </linearGradient>
    <linearGradient id="h" x1="20.781" x2="20.781" y1="2.101" y2="12.601" class="h" gradientUnits="userSpaceOnUse">
      <stop offset=".144" stop-color="#F4CB0A"/>
      <stop offset="1" stop-color="#F4CB0A" stop-opacity=".5"/>
    </linearGradient>
  </defs>
</svg>
