<svg xmlns="http://www.w3.org/2000/svg" width="24" height="24" fill="none" viewBox="0 0 24 24">
  <g class="icon-next-field">
    <path fill="#444" d="m12 14.25-.53.53a.75.75 0 0 0 1.06 0l-.53-.53Zm4.03-2.97a.75.75 0 1 0-1.06-1.06l.53.53.53.53Zm-7-1.06a.75.75 0 1 0-1.06 1.06l.53-.53.53-.53ZM3 12h-.75A9.75 9.75 0 0 0 12 21.75v-1.5A8.25 8.25 0 0 1 3.75 12H3Zm9 9v.75A9.75 9.75 0 0 0 21.75 12h-1.5A8.25 8.25 0 0 1 12 20.25V21Zm9-9h.75A9.75 9.75 0 0 0 12 2.25v1.5A8.25 8.25 0 0 1 20.25 12H21Zm-9-9v-.75A9.75 9.75 0 0 0 2.25 12h1.5A8.25 8.25 0 0 1 12 3.75V3Zm0 11.25.53.53 3.5-3.5-.53-.53-.53-.53-3.5 3.5.53.53Zm0 0 .53-.53-3.5-3.5-.53.53-.53.53 3.5 3.5.53-.53Z" class="icon-fill-gray-primary"/>
  </g>
</svg>
