<svg xmlns="http://www.w3.org/2000/svg" width="24" height="24" fill="none" viewBox="0 0 24 24">
  <g class="icon-protect-doc">
    <path stroke="#446ECA" stroke-linecap="round" stroke-width="1.5" d="M14.5 16.499v-1.5a2.5 2.5 0 0 1 5 0v1.5m-5 0h5m-5 0a1 1 0 0 0-1 1v4a1 1 0 0 0 1 1h5a1 1 0 0 0 1-1v-4a1 1 0 0 0-1-1" class="icon-stroke-blue-primary"/>
    <path stroke="#444" stroke-linecap="round" stroke-linejoin="round" stroke-width="1.5" d="m4.578 7.5 4.972-5m-4.972 5H9.45a.1.1 0 0 0 .1-.1V2.5m-4.972 5-.073 12.994a1 1 0 0 0 1 1.005H10.5m-.95-19h7.95a1 1 0 0 1 1 1v6" class="icon-stroke-gray-primary"/>
  </g>
</svg>
