<svg width="28" height="28" viewBox="0 0 28 28" fill="none" xmlns="http://www.w3.org/2000/svg">
    <path d="M24.103 4.005A1 1 0 0 1 25 5v17a1 1 0 0 1-.898.995L24 23H4a1 1 0 0 1-.995-.898L3 22V5a1 1 0 0 1 1-1h20zM4 22h20V5H4z" fill="#000"/>
    <path d="M9.5 9a4.49 4.49 0 0 1 3.5 1.672V12l-5 .035v3L13 15v1.327A4.5 4.5 0 1 1 9.5 9M22 9a1 1 0 0 1 1 1v7a1 1 0 0 1-1 1h-7l-.015-.001 4.465-4.464-4.532-4.532Q14.958 9 15 9z" opacity=".4" fill="#000"/>
    <path d="M9.5 9a4.49 4.49 0 0 1 4.243 3.001l-1.077.005a3.5 3.5 0 1 0-.007 3L13.742 15A4.495 4.495 0 0 1 9.5 18a4.5 4.5 0 1 1 0-9M22 9a1 1 0 0 1 1 1v7a1 1 0 0 1-1 1h-7l-.015-.001 1-.999H22v-7h-6.086l-.996-.997Q14.958 9 15 9z" fill="#000"/>
    <path d="M18.035 13.535 14.5 17.071l-.707-.707 2.328-2.329H9v-1h7.121l-2.328-2.328L14.5 10z" fill="#000"/>
</svg>
