<svg xmlns="http://www.w3.org/2000/svg" width="24" height="24" fill="none" viewBox="0 0 24 24">
  <g class="icon-table-remove-row-rtl" clip-path="url(#a)">
    <path fill="#444" fill-rule="evenodd" d="M3.5 3.542c-.966 0-1.75.785-1.75 1.751v13c0 .966.784 1.75 1.75 1.75h9.94c.113-.478.354-.932.726-1.305l.195-.195H9.25v-3.5h4.113a2.74 2.74 0 0 1 .803-1.961h.001a2.75 2.75 0 0 1 3.89 0l.883.883.884-.884a2.737 2.737 0 0 1 1.426-.757V5.293a1.75 1.75 0 0 0-1.75-1.751h-16Zm-.25 11.455a.746.746 0 0 0 .25.046h4.25v3.5H3.5a.25.25 0 0 1-.25-.25v-3.296ZM19.5 5.043a.25.25 0 0 1 .25.25v3.25h-4.5v-3.5h4.25Zm-5.75 3.5h-4.5v-3.5h4.5v3.5Zm-6 0h-4.5v-3.25a.25.25 0 0 1 .25-.25h4.25v3.5Z" class="icon-fill-gray-primary" clip-rule="evenodd"/>
    <path fill="#FF3B30" d="M15.58 15.555a.75.75 0 0 1 1.061-1.06l2.298 2.299 2.299-2.3a.75.75 0 1 1 1.06 1.061L20 17.854l2.298 2.298a.75.75 0 1 1-1.06 1.06l-2.299-2.297-2.298 2.297a.75.75 0 1 1-1.06-1.06l2.298-2.298-2.298-2.299Z" class="icon-fill-red"/>
  </g>
  <defs>
    <clipPath id="a" class="a">
      <path fill="#fff" d="M0 0h24v24H0z"/>
    </clipPath>
  </defs>
</svg>
