<svg xmlns="http://www.w3.org/2000/svg" width="24" height="24" fill="none" viewBox="0 0 24 24">
  <g class="icon-move-forward-rtl">
    <path stroke="#444" stroke-linecap="round" stroke-linejoin="round" stroke-width="1.5" d="M15.5 15.293v4a1 1 0 0 1-1 1h-10a1 1 0 0 1-1-1v-10a1 1 0 0 1 1-1h4" class="icon-stroke-gray-primary"/>
    <path fill="#DCE7FA" d="M8.5 4.293v10a1 1 0 0 0 1 1h10a1 1 0 0 0 1-1v-10a1 1 0 0 0-1-1h-10a1 1 0 0 0-1 1Z" class="icon-fill-blue-secondary"/>
    <path stroke="#446ECA" stroke-linecap="round" stroke-linejoin="round" stroke-width="1.5" d="M8.5 4.293v10a1 1 0 0 0 1 1h10a1 1 0 0 0 1-1v-10a1 1 0 0 0-1-1h-10a1 1 0 0 0-1 1Z" class="icon-stroke-blue-primary"/>
  </g>
</svg>
