<svg xmlns="http://www.w3.org/2000/svg" width="24" height="24" fill="none" viewBox="0 0 24 24">
  <g class="icon-collaboration">
    <path fill="#444" d="M16.673 18.25a.75.75 0 0 0 0 1.5v-1.5Zm-.142-4.943a.75.75 0 1 0 0 1.5v-1.5Zm-2.553-2.306a.75.75 0 0 0 0 1.5V11Zm-.24-6.92a.75.75 0 1 0 0 1.5v-1.5ZM2.994 19v.75h9.937v-1.5H2.994V19Zm10.93-.989h.75v-.989h-1.5v.989h.75Zm-2.98-3.954v-.75H4.98v1.5h5.963v-.75ZM2 17.022h-.75v.989h1.5v-.989H2Zm2.981-2.965v-.75a3.723 3.723 0 0 0-3.731 3.715h1.5c0-1.22.995-2.215 2.231-2.215v-.75Zm8.944 2.965h.75a3.723 3.723 0 0 0-3.731-3.715v1.5c1.236 0 2.23.995 2.23 2.215h.75ZM12.93 19v.75c.96 0 1.744-.775 1.744-1.739h-1.5a.241.241 0 0 1-.244.239V19Zm-9.937 0v-.75a.241.241 0 0 1-.244-.239h-1.5c0 .964.784 1.739 1.744 1.739V19Zm8.469-11.04h-.75a2.719 2.719 0 0 1-2.728 2.71v1.5c2.331 0 4.228-1.881 4.228-4.21h-.75Zm-3.478 3.46v-.75a2.719 2.719 0 0 1-2.728-2.71h-1.5c0 2.329 1.896 4.21 4.228 4.21v-.75ZM4.507 7.96h.75a2.719 2.719 0 0 1 2.728-2.71v-1.5c-2.332 0-4.228 1.881-4.228 4.21h.75ZM7.985 4.5v.75a2.72 2.72 0 0 1 2.728 2.71h1.5c0-2.329-1.897-4.21-4.228-4.21v.75ZM16.673 19v.75h3.833v-1.5h-3.833V19Zm4.827-.988h.75v-.99h-1.5v.99h.75Zm-2.981-3.955v-.75H16.53v1.5h1.988v-.75Zm2.981 2.966h.75a3.723 3.723 0 0 0-3.731-3.716v1.5c1.236 0 2.231.996 2.231 2.216h.75ZM20.506 19v.75c.96 0 1.744-.775 1.744-1.738h-1.5a.241.241 0 0 1-.244.238V19ZM17.712 8.235h-.75C16.962 9.72 15.67 11 13.978 11v1.5c2.433 0 4.484-1.868 4.484-4.266h-.75ZM13.738 4.83v.75c1.788 0 3.224 1.253 3.224 2.654h1.5c0-2.484-2.388-4.154-4.724-4.154v.75Z" class="icon-fill-gray-primary"/>
  </g>
</svg>
