<svg xmlns="http://www.w3.org/2000/svg" width="24" height="24" fill="none" viewBox="0 0 24 24">
  <g class="icon-table-remove-column" clip-path="url(#a)">
    <path fill="#FF3B30" d="M8.42 15.558a.75.75 0 0 0-1.061-1.06L5.06 16.796l-2.299-2.298a.75.75 0 1 0-1.06 1.06L4 17.857l-2.298 2.298a.75.75 0 1 0 1.06 1.06l2.299-2.297 2.298 2.297a.75.75 0 0 0 1.06-1.06l-2.298-2.298 2.298-2.299Z" class="icon-fill-red"/>
    <path fill="#444" fill-rule="evenodd" d="M20.5 3.546c.966 0 1.75.783 1.75 1.75v13a1.75 1.75 0 0 1-1.75 1.75h-9.94a2.732 2.732 0 0 0-.726-1.305l-.195-.195h5.111v-3.5h-4.113a2.739 2.739 0 0 0-.803-1.961l-.001-.001a2.75 2.75 0 0 0-3.89 0l-.883.884-.884-.884a2.737 2.737 0 0 0-1.426-.757V5.296c0-.967.784-1.75 1.75-1.75h16Zm-4.25 15h4.25a.25.25 0 0 0 .25-.25v-3.25h-4.5v3.5Zm-6-5h4.5v-3.5h-4.5v3.5Zm6 0h4.5v-3.5h-4.5v3.5Zm-6-5h4.5v-3.5h-4.5v3.5Zm6 0h4.5v-3.25a.25.25 0 0 0-.25-.25h-4.25v3.5Z" class="icon-fill-gray-primary" clip-rule="evenodd"/>
  </g>
  <defs>
    <clipPath id="a" class="a">
      <path fill="#fff" d="M0 0h24v24H0z"/>
    </clipPath>
  </defs>
</svg>
