<svg xmlns="http://www.w3.org/2000/svg" width="24" height="24" fill="none" viewBox="0 0 24 24">
  <g class="icon-sharing-settings">
    <path stroke="#444" stroke-linecap="round" stroke-linejoin="round" stroke-miterlimit="1.414" stroke-width="1.5" d="M16.954 19.334h3.857a1 1 0 0 0 1-1v-1a3 3 0 0 0-3-3h-2M14.241 12C16.318 12 18 10.408 18 8.443 18 6.48 16.076 5 14 5M3.188 19.333h10a1 1 0 0 0 1-1v-1a3 3 0 0 0-3-3h-6a3 3 0 0 0-3 3v1a1 1 0 0 0 1 1Zm8.523-11.167a3.5 3.5 0 1 1-7 0 3.5 3.5 0 0 1 7 0Z" class="icon-stroke-gray-primary"/>
  </g>
</svg>
