<svg xmlns="http://www.w3.org/2000/svg" width="24" height="24" fill="none" viewBox="0 0 24 24">
  <g class="icon-hide-password">
    <path fill="#444" d="m4.5 11.796-.705-.256a.75.75 0 0 0 0 .512l.705-.256Zm15 0 .705.256a.749.749 0 0 0 0-.512l-.705.256Zm-3.094 4.972a.75.75 0 1 0-.812-1.261l.406.63.406.631ZM7.965 8.394a.75.75 0 1 0-.906-1.196l.453.598.453.598Zm2.389-2.69a.75.75 0 0 0 .292 1.472L10.5 6.44l-.146-.735Zm7.342 7.785a.75.75 0 1 0 1.21.887l-.605-.444-.605-.443ZM7.03 5.766a.75.75 0 0 0-1.06 1.06l.53-.53.53-.53Zm9.94 12.06a.75.75 0 1 0 1.06-1.06l-.53.53-.53.53Zm-3.136-3.98a.75.75 0 1 0-1-1.118l.5.559.5.559Zm-2.766-2.883a.75.75 0 1 0-1.118-1l.56.5.558.5Zm-6.568.833-.705.257.001.003.002.005a2.806 2.806 0 0 0 .029.073 9.8 9.8 0 0 0 .41.872c.292.553.744 1.29 1.383 2.03 1.281 1.484 3.347 3.01 6.38 3.01v-1.5c-2.467 0-4.151-1.224-5.245-2.49a9.568 9.568 0 0 1-1.47-2.323 5.016 5.016 0 0 1-.078-.188l-.002-.006s0-.001 0 0l-.705.257Zm15 0 .705-.257-.001-.003-.002-.005a1.038 1.038 0 0 0-.029-.074 9.843 9.843 0 0 0-.41-.872 11.07 11.07 0 0 0-1.383-2.03C17.1 7.073 15.033 5.546 12 5.546v1.5c2.467 0 4.151 1.225 5.245 2.491a9.571 9.571 0 0 1 1.47 2.323c.03.067.05.119.064.152l.014.035.003.007.704-.257Zm-7.5 5.5v.75c1.784 0 3.243-.53 4.406-1.278l-.406-.63-.406-.631c-.944.607-2.125 1.039-3.594 1.039v.75Zm-4.488-9.5-.453-.598c-1.173.889-1.984 1.97-2.5 2.819a10.75 10.75 0 0 0-.712 1.39 4.795 4.795 0 0 0-.047.12l-.003.008-.001.003v.001l.704.257.705.257v-.001l.005-.014.026-.064a9.252 9.252 0 0 1 .605-1.178c.452-.744 1.147-1.662 2.124-2.402l-.453-.598ZM12 6.296v-.75c-.581 0-1.13.056-1.646.159l.146.736.146.735c.42-.083.87-.13 1.354-.13v-.75Zm6.3 7.636.606.444c.449-.613.77-1.185.98-1.606a9.026 9.026 0 0 0 .295-.656l.017-.042a.584.584 0 0 1 .004-.013l.002-.004v-.002l-.704-.257-.705-.257c0-.001 0-.001 0 0l-.001.004a7.604 7.604 0 0 1-.25.558 9.67 9.67 0 0 1-.848 1.388l.605.443ZM6.5 6.296l-.53.53 11 11 .53-.53.53-.53-11-11-.53.53Zm5.5 7.5v-.75c-.69 0-1.25-.56-1.25-1.25h-1.5a2.75 2.75 0 0 0 2.75 2.75v-.75Zm1.333-.509-.5-.559a1.242 1.242 0 0 1-.833.318v1.5c.704 0 1.348-.265 1.834-.7l-.5-.559ZM10 11.797h.75c0-.321.12-.612.318-.834l-.559-.5-.559-.5c-.435.486-.7 1.13-.7 1.833H10Z" class="icon-stroke-gray-primary"/>
  </g>
</svg>
