<svg xmlns="http://www.w3.org/2000/svg" width="24" height="24" fill="none" viewBox="0 0 24 24">
  <g class="draw-rtl">
    <path fill="#444" d="M17.173 4.795c-2.161-.783-4.344-.668-6.38-.003l1.213 1.213c1.541-.374 3.118-.356 4.648.196 1.759.698 2.878 1.692 3.525 2.79.65 1.101.857 2.367.692 3.664-.332 2.62-2.177 5.294-4.73 6.687a.75.75 0 0 0 .719 1.316c2.947-1.608 5.103-4.685 5.5-7.813.2-1.578-.047-3.188-.889-4.617-.844-1.43-2.252-2.624-4.277-3.425l-.01-.004-.01-.004ZM3.777 9.896c-.733 1.074-1.182 2.184-1.368 3.278-.376 2.202.326 4.274 1.802 5.69 2.09 2.003 5.572 2.571 9.41.698l-.328-.674-.329-.673c-3.402 1.66-6.174 1.043-7.714-.434-1.106-1.061-1.657-2.629-1.363-4.355.134-.784.447-1.612.974-2.446L3.777 9.896Z" class="icon-fill-gray-primary"/>
    <path stroke="#444" stroke-linecap="round" stroke-linejoin="round" stroke-width="1.5" d="m9.5 6.5 7 7v3h-3l-7-7m3-3L7.207 4.207a1 1 0 0 0-1.414 0L4.207 5.793a1 1 0 0 0 0 1.414L6.5 9.5m3-3-3 3" class="icon-fill-gray-primary"/>
  </g>
</svg>
