<svg xmlns="http://www.w3.org/2000/svg" width="64" height="64" fill="none" viewBox="0 0 64 64">
  <g class="multi-bullets">
    <path fill="#444" d="M21 13h35v1H21v-1Zm10 18h25v1H31v-1Zm6 18h19v1H37v-1Z" class="icon-fill-gray-primary" opacity=".3"/>
    <path fill="#444" d="M8.604 18v-6.725h-.021l-2.052 1.477v-1.02l2.063-1.482h.945V18h-.935Zm4.796-3.05c0 2.454-.816 3.797-1.524 4.699h-.785c.473-.548 1.36-2.267 1.36-4.7 0-2.433-.892-4.157-1.36-4.7h.785c.709.903 1.525 2.246 1.525 4.7Zm4.049 20.352c.88 0 1.557-.618 1.557-1.424v-.456l-1.493.091c-.752.049-1.182.382-1.182.908 0 .532.446.88 1.118.88Zm-.21.795c-1.112 0-1.858-.672-1.858-1.676 0-.956.736-1.558 2.025-1.633l1.6-.091v-.468c0-.682-.45-1.09-1.224-1.09-.72 0-1.171.338-1.29.886h-.902c.065-.966.892-1.708 2.213-1.708 1.31 0 2.138.71 2.138 1.821V36h-.886v-.961h-.022c-.333.639-1.042 1.058-1.794 1.058Zm5.806-3.147c0 2.454-.816 3.797-1.525 4.699h-.784c.473-.548 1.359-2.267 1.359-4.7 0-2.433-.892-4.157-1.36-4.7h.785c.709.903 1.525 2.246 1.525 4.7ZM25.655 53v-5.586h.934V53h-.934Zm.467-6.526a.585.585 0 0 1-.58-.58.582.582 0 0 1 1.165 0c0 .317-.263.58-.585.58Zm3.647 3.476c0 2.454-.816 3.797-1.525 4.699h-.785c.473-.548 1.36-2.267 1.36-4.7 0-2.433-.892-4.157-1.36-4.7h.785c.709.903 1.525 2.246 1.525 4.7Z" class="icon-fill-gray-primary"/>
  </g>
</svg>
