<svg xmlns="http://www.w3.org/2000/svg" width="64" height="64" fill="none" viewBox="0 0 64 64">
  <g class="chart-radar-2">
    <path fill="#555" fill-rule="evenodd" d="M18.632 54 7 24.648 34.077 4 51 28.116 40.55 41.584 18.631 54ZM33.66 6.665 48.675 28.06l-9.384 12.093-19.706 11.163L9.263 25.27 33.66 6.665Z" class="icon-fill-type-preview" clip-rule="evenodd" opacity=".6"/>
    <path fill="#555" fill-rule="evenodd" d="M33.855 13.5H35.7v3.57l17.747 5.68H57.9v1.084l3.77-1.222.573 1.76-4.324 1.407-.019.054V28.3h-.85l-7.655 22.2H50.5v5.04l1.115 1.536-1.496 1.088-1.538-2.114h-3.63v-2.42l-18.5-6.937v.107h-2.454l-8.266 11.363-1.497-1.086L21.69 46.8h-.79v-5.55h1.488L21.23 32h-2.18v-2.602L3.608 24.372l.572-1.76 14.87 4.822v-.984h3.733l7.367-8.037V13.5h1.843L32 2.4h1.85l.005 11.1ZM26.45 43.427v1.292l18.5 6.936v-.595L32.925 34.528l-6.475 8.899Zm8-10.007L46.843 50.5h.593l7.655-22.2H52.35v-.71l-17.9 5.83ZM24.6 32h-1.504l1.156 9.25h1.466l5.682-7.83-6.8-2.215V32Zm0-4.795v2.027l7.382 2.396.007-12.483-7.39 8.06Zm11.1-8.155h-1.842l.01 12.578 18.482-5.994V24.34L35.7 19.013v.037Z" class="icon-fill-type-preview" clip-rule="evenodd"/>
  </g>
</svg>
