<svg xmlns="http://www.w3.org/2000/svg" width="64" height="64" fill="none" viewBox="0 0 64 64">
  <g class="chart-scatter-smooth-lines">
    <path fill="#555" fill-rule="evenodd" d="M50.913 41.98C48.404 45.606 44.506 48 38.73 48c-10.511 0-17.2-8.44-21.194-16.456-2.015-4.047-3.397-8.084-4.275-11.103a68.75 68.75 0 0 1-.958-3.657 47.152 47.152 0 0 1-.283-1.308l-.014-.073-.004-.02-.001-.005s0-.003.973-.186l.974-.183v.003l.003.015.013.064a45.49 45.49 0 0 0 .27 1.244c.197.854.502 2.078.93 3.55.856 2.946 2.198 6.862 4.145 10.77 3.93 7.89 10.12 15.357 19.421 15.357 5.131 0 8.42-2.08 10.557-5.166 2.178-3.147 3.207-7.417 3.571-11.818.362-4.382.058-8.783-.342-12.101a71.971 71.971 0 0 0-.594-3.998 50.791 50.791 0 0 0-.27-1.404l-.016-.072-.003-.017-.001-.004.966-.217c.967-.216.968-.216.968-.215l.001.008.005.022.018.08.063.31c.055.269.13.66.22 1.158.177.994.405 2.41.61 4.11.409 3.393.727 7.94.35 12.505-.377 4.547-1.452 9.224-3.919 12.788Z" class="icon-fill-type-preview" clip-rule="evenodd" opacity=".6"/>
      <path fill="#555" d="M6 6h2v52h52v2H6V6Z" class="icon-fill-type-preview"/>
      <path fill="#555" d="M19.991 53.132c.718-5.378 2.636-12.914 6.093-18.988 3.468-6.092 8.32-10.46 14.868-10.145 5.527.265 8.787 3.93 11.129 9.395 1.446 3.374 2.432 8.265 3.055 12.38a118.185 118.185 0 0 1 .82 6.743l.035.418.01.107.002.035L57 53l.997-.078v-.01l-.003-.03-.01-.113-.037-.43a120.193 120.193 0 0 0-.834-6.863c-.626-4.135-1.64-9.244-3.194-12.87-2.464-5.75-6.212-10.285-12.871-10.605-7.669-.368-13.088 4.805-16.702 11.154-3.624 6.366-5.598 14.172-6.337 19.713l1.982.264Z" class="icon-fill-type-preview"/>
  </g>
</svg>
