<svg xmlns="http://www.w3.org/2000/svg" width="28" height="28" viewBox="0 0 28 28" stroke="currentColor" stroke-linecap="round" stroke-linejoin="round" fill="none">
    <path d="M9.18 15a1.18 1.18 0 1 1-2.36 0 1.18 1.18 0 0 1 2.36 0Z" opacity=".4" stroke="none" fill="currentColor" class="icon-fill-blue-primary"/>
    <path d="M10 16.5a2.5 2.5 0 1 1-1-3.792" class="icon-stroke-gray-primary"/>
    <path d="M11.001 12.75a.75.75 0 0 1 .75-.75h1.498a.75.75 0 0 1 .75.75v1.5a.75.75 0 0 1-.75.75h-1.498a.75.75 0 0 1-.75-.75v-1.5Z" opacity=".6" stroke="none" fill="currentColor" class="icon-fill-blue-primary"/>
    <path d="M13.5 16.5H11A1.5 1.5 0 0 1 9.5 15v-3a1.5 1.5 0 0 1 1.5-1.5h4" class="icon-stroke-gray-primary"/>
    <path d="M16.222 11.994a.5.5 0 0 1 .612-.354l3.863 1.035a.5.5 0 0 1 .353.612l-1.035 3.863a.5.5 0 0 1-.612.353l-3.862-1.035a.5.5 0 0 1-.354-.612l1.035-3.862Z" opacity=".8" stroke="none" fill="currentColor" class="icon-fill-blue-primary"/>
    <path d="M15.12 10.792a1 1 0 0 1 1.225-.707l5.554 1.488a1 1 0 0 1 .707 1.224l-1.488 5.555a1 1 0 0 1-1.225.707l-5.554-1.489a1 1 0 0 1-.707-1.224l1.488-5.554Z" class="icon-stroke-gray-primary"/>
    <path d="M23.5 5.5h-19a1 1 0 0 0-1 1v15a1 1 0 0 0 1 1h19a1 1 0 0 0 1-1v-15a1 1 0 0 0-1-1Z" class="icon-stroke-gray-primary"/>
</svg>
