<svg xmlns="http://www.w3.org/2000/svg" width="28" height="28" viewBox="0 0 28 28" stroke="currentColor" stroke-linecap="round" stroke-linejoin="round" fill="none">
    <path d="m9.842 9.72-5 1.666a.5.5 0 0 0-.342.474v4.28a.5.5 0 0 0 .342.474l5 1.666a.5.5 0 0 0 .658-.474v-7.613a.5.5 0 0 0-.658-.474Zm13.037-3.065-9 2.25a.5.5 0 0 0-.379.485v9.22a.5.5 0 0 0 .379.485l9 2.25a.5.5 0 0 0 .621-.485V7.14a.5.5 0 0 0-.621-.485Z" class="icon-stroke-gray-primary"/>
    <path d="M20.5 14c0 1.38-.895 2.5-2 2.5s-2-1.12-2-2.5.895-2.5 2-2.5 2 1.12 2 2.5Z" class="icon-stroke-gray-primary"/>
    <path d="M8.342 11.72a.5.5 0 0 1 .658.474v3.612a.5.5 0 0 1-.658.475l-2-.667A.5.5 0 0 1 6 15.14v-2.28a.5.5 0 0 1 .342-.474l2-.667Z" fill="currentColor" stroke="none" class="icon-fill-blue-primary"/>
</svg>
