<svg xmlns="http://www.w3.org/2000/svg" width="28" height="28" viewBox="0 0 28 28" stroke="currentColor" stroke-linecap="round" stroke-linejoin="round" fill="none">
    <path d="M24.5 21.5v-15a1 1 0 0 0-1-1h-19a1 1 0 0 0-1 1v15a1 1 0 0 0 1 1h19a1 1 0 0 0 1-1Z" class="icon-stroke-gray-primary"/>
    <path d="M22.75 7a.25.25 0 0 1 .25.25v13.5a.25.25 0 0 1-.25.25H5.25a.25.25 0 0 1-.25-.25V7.25A.25.25 0 0 1 5.25 7h17.5Z" stroke="none" fill="currentColor" opacity=".2" class="icon-fill-blue-primary"/>
    <path d="m11 20-4-.6v-1.8l4-.6v3Zm11-2-5-1.6v-4.8l5-1.6v8Zm-11-6-4-.6V9.6l4-.6v3Z" stroke="none" fill="currentColor" opacity=".6" class="icon-fill-blue-primary"/>
    <path d="m16 19-4 1v-2l4-1v2Zm-6-5.4v1.8L6 16v-3l4 .6Zm5 2.4-3-.6v-1.8l3-.6v3Zm1-5-4 1v-2l4-1v2Z" stroke="none" fill="currentColor" class="icon-fill-blue-primary"/>
</svg>
