<svg xmlns="http://www.w3.org/2000/svg" width="64" height="64" fill="none" viewBox="0 0 64 64">
  <g class="chart-scatter-normal">
    <path fill="#555" d="M15 18a3 3 0 1 0 0-6 3 3 0 0 0 0 6Zm24 30a3 3 0 1 0 0-6 3 3 0 0 0 0 6Zm-9-9a3 3 0 1 1-6 0 3 3 0 0 1 6 0Zm21-13a3 3 0 1 0 0-6 3 3 0 0 0 0 6Z" class="icon-fill-type-preview" opacity=".6"/>
      <path fill="#555" d="M8 6H6v54h54v-2H8V6Z" class="icon-fill-type-preview"/>
      <path fill="#555" d="M34 27a3 3 0 1 1-6 0 3 3 0 0 1 6 0Zm11 11a3 3 0 1 0 0-6 3 3 0 0 0 0 6Zm15 13a3 3 0 1 1-6 0 3 3 0 0 1 6 0Zm-41 3a3 3 0 1 0 0-6 3 3 0 0 0 0 6Z" class="icon-fill-type-preview"/>
  </g>
</svg>
