<svg xmlns="http://www.w3.org/2000/svg" width="64" height="64" fill="none" viewBox="0 0 64 64">
  <g class="chart-radar-3">
    <path fill="#555" d="M33.007 17.083 21.927 29l1.847 15.583 4.325 1.344L19.157 51 9 25.333 33.007 7 42 19.833l-8.993-2.75Z" class="icon-fill-type-preview" opacity=".6"/>
    <path fill="#555" d="M46.833 53 24.5 44.5l-2-15.5 10.583-11L56 25.568 46.833 53Z" class="icon-fill-type-preview" opacity=".4"/>
    <path fill="#555" fill-rule="evenodd" d="m33.857 16.48 23.514 7.526 4.299-1.394.572 1.76-4.324 1.407-9.346 27.104 3.043 4.193-1.496 1.088-2.596-3.567-22.94-8.603-8.852 12.17-1.497-1.087 8.643-11.912-1.892-15.136-17.377-5.657.572-1.76 17.052 5.53 10.76-11.737L32 2.4h1.85l.007 14.08Zm-8.145 27.962 19.835 7.438-12.622-17.352-7.213 9.914Zm8.737-11.022 12.797 17.635 8.468-24.559-21.265 6.924Zm-9.981 9.553L31.4 33.42l-8.471-2.758 1.539 12.31Zm-1.301-14.204 8.815 2.859.007-12.483-8.822 9.624Zm10.7 2.859 20.49-6.645-20.499-6.56.01 13.205Z" class="icon-fill-type-preview" clip-rule="evenodd"/>
  </g>
</svg>
