<svg xmlns="http://www.w3.org/2000/svg" width="64" height="64" fill="none" viewBox="0 0 64 64">
  <g class="chart-scatter-smooth-lines-and-markers">
      <path fill="#555" d="M6 6h2v52h52v2H6V6Z" class="icon-fill-type-preview"/>
      <path fill="#555" d="M20.436 50.365c.934-5.013 2.75-11.13 5.648-16.221.972-1.707 2.052-3.279 3.248-4.65a3 3 0 0 0 4.403-3.727c2.136-1.24 4.534-1.897 7.217-1.768 4.633.222 7.673 2.834 9.915 6.892A3 3 0 0 0 53 36l.027-.001c.944 3.028 1.633 6.628 2.11 9.775.259 1.711.453 3.272.591 4.507a3 3 0 1 0 1.99-.195 119.82 119.82 0 0 0-.604-4.612c-.482-3.182-1.195-6.943-2.206-10.16a3 3 0 0 0-2.24-5.297C50.216 25.544 46.67 22.27 41.048 22c-3.328-.16-6.232.724-8.749 2.294a3 3 0 0 0-4.177 3.554c-1.431 1.582-2.686 3.39-3.776 5.306-3.044 5.347-4.924 11.71-5.886 16.893a3 3 0 1 0 1.976.317Z" class="icon-fill-type-preview"/>
    <path fill="#555" d="M54.495 13.602a3 3 0 1 0-1.968.361c.127.793.263 1.732.39 2.782.403 3.338.71 7.764.345 12.172-.367 4.426-1.406 8.722-3.605 11.887-1.749 2.518-4.263 4.37-7.914 4.98a3 3 0 0 0-5.484-.005c-7.883-1.296-13.296-8.089-16.865-15.226-1.964-3.93-3.32-7.87-4.184-10.833a70.162 70.162 0 0 1-.6-2.188 3 3 0 1 0-1.95.449c.172.672.381 1.446.63 2.299.886 3.037 2.28 7.097 4.316 11.167 3.651 7.304 9.535 14.957 18.497 16.334a3.001 3.001 0 0 0 5.794.003c4.272-.667 7.314-2.832 9.403-5.838 2.49-3.585 3.575-8.29 3.955-12.863.381-4.592.06-9.166-.353-12.578a75.968 75.968 0 0 0-.407-2.903Z" class="icon-fill-type-preview" opacity=".6"/>
  </g>
</svg>
