<svg xmlns="http://www.w3.org/2000/svg" width="64" height="64" fill="none" viewBox="0 0 64 64">
  <g class="chart-pie-3d-normal">
    <path fill="#555" d="M1 26.186h.002c0-5.62 3.266-11.008 9.08-14.98C15.894 7.231 23.778 5 32 5c8.221 0 16.107 2.232 21.92 6.205 5.814 3.973 9.08 9.362 9.08 14.98h-.002v9.63c0 5.618-3.266 11.007-9.08 14.98C48.106 54.768 40.222 57 32 57c-8.221 0-16.106-2.232-21.92-6.205S1 41.433 1 35.815v-9.63Z" class="icon-fill-type-preview" opacity=".4"/>
    <path fill="#555" d="M1 26c0 4.153 1.818 8.214 5.224 11.667 3.407 3.453 8.248 6.145 13.913 7.734 5.664 1.59 11.897 2.006 17.91 1.195 6.014-.81 11.538-2.81 15.873-5.747 4.336-2.937 7.288-6.678 8.484-10.752 1.196-4.074.583-8.296-1.764-12.133-2.346-3.838-6.32-7.117-11.417-9.425C44.125 6.232 38.13 5 32 5v21H1Z" class="icon-fill-type-preview"/>
  </g>
</svg>
