<svg xmlns="http://www.w3.org/2000/svg" width="64" height="64" fill="none" viewBox="0 0 64 64">
  <g class="chart-column-3d-stack">
    <path fill="#555" d="m54 25-8 2V7l8-2v20Z" class="icon-fill-type-preview" opacity=".2"/>
    <path fill="#555" d="m54 59-8 2V27l8-2v34ZM18 29.5v3l-2 .5-8-2 8-2 2 .5Zm10-8v3l-2 .5-8-2 8-2 2 .5Zm10-10v3l-2 .5-8-2 8-2 2 .5ZM54 5l-8 2-8-2 8-2 8 2Z" class="icon-fill-type-preview" opacity=".6"/>
    <path fill="#555" d="M16 33v8l-8-2v-8l8 2Zm10-8v14l-8-2V23l8 2Zm10-10v20l-8-2V13l8 2Zm10-8v20l-8-2V5l8 2Z" class="icon-fill-type-preview" opacity=".4"/>
    <path fill="#555" d="M46 27v34l-8-2V25l8 2Zm-10 8v22l-8-2V33l8 2Zm-10 4v14l-8-2V37l8 2Zm-10 2v8l-8-2v-8l8 2Z" class="icon-fill-type-preview"/>
  </g>
</svg>
