<svg xmlns="http://www.w3.org/2000/svg" width="24" height="24" fill="none" viewBox="0 0 24 24">
  <g class="icon-pagebreak-rtl">
    <path stroke="#444" stroke-width="1.5" d="M14.021 2.5h-8.52a1 1 0 0 0-1 1V13m9.52-10.5L19.5 7.933M14.021 2.5l-.017 4.484a1 1 0 0 0 1.012 1.004l4.484-.055m0 0V13m-.046 4v3.5a1 1 0 0 1-1 1H5.5a1 1 0 0 1-1-1V17" class="icon-stroke-gray-primary"/>
    <path stroke="#446ECA" stroke-linecap="round" stroke-linejoin="round" stroke-width="1.5" d="M20.5 15h-1m-3 0h-1m-3 0h-1m-3 0h-1m-3 0h-1" class="icon-stroke-blue-primary"/>
  </g>
</svg>
