<svg xmlns="http://www.w3.org/2000/svg" width="24" height="24" fill="none" viewBox="0 0 24 24">
  <g class="icon-sharing-settings-rtl">
    <path stroke="#444" stroke-linecap="round" stroke-linejoin="round" stroke-miterlimit="1.414" stroke-width="1.5" d="M6.546 19.334H2.688a1 1 0 0 1-1-1v-1a3 3 0 0 1 3-3h2M9.258 12C7.183 12 5.5 10.408 5.5 8.443 5.5 6.48 7.424 5 9.5 5m10.811 14.333h-10a1 1 0 0 1-1-1v-1a3 3 0 0 1 3-3h6a3 3 0 0 1 3 3v1a1 1 0 0 1-1 1ZM11.79 8.166a3.5 3.5 0 1 0 7 0 3.5 3.5 0 0 0-7 0Z" class="icon-stroke-gray-primary"/>
  </g>
</svg>
