<svg xmlns="http://www.w3.org/2000/svg" width="24" height="24" fill="none" viewBox="0 0 24 24">
  <g class="icon-table-borders-right">
    <path stroke="#444" stroke-dasharray="3 3" stroke-linecap="round" stroke-linejoin="round" stroke-width="1.5" d="M1.5 2.296a1 1 0 0 1 1-1h18a1 1 0 0 1 1 1v18a1 1 0 0 1-1 1h-18a1 1 0 0 1-1-1v-18Z" class="icon-stroke-gray-primary" opacity=".4"/>
    <path stroke="#444" stroke-linecap="round" stroke-linejoin="round" stroke-width="1.5" d="M11.5 9.296v4m2-2h-4m-3 0h-2m14 0h-2m-5-5v-2m0 14v-2" class="icon-stroke-gray-primary" opacity=".4"/>
    <path stroke="#446ECA" stroke-linecap="round" stroke-linejoin="round" stroke-width="1.5" d="M19 1.296h1.5a1 1 0 0 1 1 1v18a1 1 0 0 1-1 1H19" class="icon-stroke-blue-primary"/>
  </g>
</svg>
