<svg xmlns="http://www.w3.org/2000/svg" width="24" height="24" fill="none" viewBox="0 0 24 24">
  <g class="icon-text-valign-middle">
    <path stroke="#444" stroke-linecap="round" stroke-linejoin="round" stroke-miterlimit="1.414" stroke-width="1.5" d="M2.75 13.546h18.52m-18.52-3h18.52" class="icon-stroke-gray-primary"/>
    <path fill="#446ECA" d="M12.75 1.796a.75.75 0 0 0-1.5 0h1.5Zm-.58 5.84.512.549-.511-.548Zm2.842-1.625a.75.75 0 1 0-1.024-1.097l.512.549.512.548Zm-3.183 1.626-.511.548.511-.548Zm-1.817-2.723a.75.75 0 1 0-1.024 1.097l.512-.548.512-.549Zm1.238 17.382a.75.75 0 1 0 1.5 0h-1.5Zm.92-5.841-.511.548.512-.548Zm1.818 2.722a.75.75 0 1 0 1.024-1.096l-.512.548-.512.548Zm-2.159-2.722-.511-.548.511.548Zm-2.84 1.626a.75.75 0 1 0 1.023 1.096L9.5 18.63l-.512-.548ZM12 7.213h.75V1.796h-1.5v5.417H12Zm.17.424.512.548 2.33-2.174-.512-.548-.512-.549-2.33 2.174.513.549Zm-.34 0 .511-.549-2.33-2.174-.511.549-.512.548 2.33 2.174.511-.548Zm.34 0-.511-.549a.5.5 0 0 1 .682 0l-.512.549-.511.548a1 1 0 0 0 1.364 0l-.511-.548ZM12 16.879h-.75v5.417h1.5v-5.417H12Zm.17-.424-.511.548 2.33 2.174.511-.548.512-.548-2.33-2.174-.511.548Zm-.34 0-.512-.548-2.33 2.174.512.548.512.548 2.33-2.174-.513-.548Zm.34 0 .512-.548a1 1 0 0 0-1.364 0l.511.548.512.548a.5.5 0 0 1-.682 0l.512-.548Z" class="icon-stroke-blue-primary"/>
  </g>
</svg>
