<svg xmlns="http://www.w3.org/2000/svg" width="24" height="24" fill="none" viewBox="0 0 24 24">
  <g class="icon-settings">
    <g class="icon-stroke-gray-primary">
      <path stroke="#444" stroke-linecap="round" stroke-linejoin="round" stroke-width="1.5" d="M18.352 14.575a1.416 1.416 0 0 0 .283 1.563c.342.341.555.777.555 1.266 0 .451-.184.896-.503 1.215-.32.319-.764.503-1.215.503-.489 0-.925-.213-1.266-.555a1.417 1.417 0 0 0-.738-.381c-.55-.1-1.139.151-1.447.617-.153.23-.235.5-.236.777 0 .51-.131.988-.503 1.36a1.717 1.717 0 0 1-2.428 0c-.348-.348-.502-.807-.502-1.292a1.416 1.416 0 0 0-.264-.79 1.529 1.529 0 0 0-1.488-.604c-.562.102-.843.597-1.347.806a1.732 1.732 0 0 1-1.314 0 1.735 1.735 0 0 1-.93-.93 1.732 1.732 0 0 1 0-1.315c.208-.504.703-.785.805-1.346.05-.279.016-.566-.098-.825a1.416 1.416 0 0 0-.52-.623c-.281-.186-.593-.235-.922-.235a1.717 1.717 0 0 1 0-3.434c.312 0 .612-.08.868-.264.461-.33.704-.93.603-1.488-.1-.558-.597-.845-.805-1.346a1.732 1.732 0 0 1 0-1.315 1.717 1.717 0 0 1 2.802-.557c.219.219.481.377.79.432.574.105 1.193-.131 1.515-.617.187-.282.236-.593.236-.923a1.717 1.717 0 0 1 3.434 0c0 .305.064.597.235.854.152.23.369.411.623.52a1.416 1.416 0 0 0 1.562-.283c.342-.342.778-.555 1.266-.555.452 0 .896.184 1.215.503.32.319.504.764.504 1.215 0 .451-.185.896-.504 1.214a1.488 1.488 0 0 0-.433.79c-.104.574.132 1.194.618 1.516.23.152.5.234.776.235.511 0 .989.132 1.36.503a1.717 1.717 0 0 1 0 2.428c-.348.348-.806.503-1.29.503a1.416 1.416 0 0 0-1.297.858Z"/>
      <path stroke="#444" stroke-linecap="round" stroke-linejoin="round" stroke-width="1.5" d="M12 15.345a3.344 3.344 0 1 0 0-6.69 3.344 3.344 0 0 0 0 6.69Z"/>
    </g>
  </g>
</svg>
