<svg xmlns="http://www.w3.org/2000/svg" width="24" height="24" fill="none" viewBox="0 0 24 24">
  <g class="icon-collaboration-rtl">
    <path fill="#444" d="M6.546 20.084a.75.75 0 0 0 0-1.5v1.5Zm.142-5a.75.75 0 0 0 0-1.5v1.5Zm2.57-2.334a.75.75 0 0 0 0-1.5v1.5Zm.242-7a.75.75 0 0 0 0-1.5v1.5Zm10.811 13.583v-.75h-10v1.5h10v-.75Zm-11-1h.75v-1h-1.5v1h.75Zm3-4v.75h6v-1.5h-6v.75Zm9 3h-.75v1h1.5v-1h-.75Zm-3-3v.75a2.25 2.25 0 0 1 2.25 2.25h1.5a3.75 3.75 0 0 0-3.75-3.75v.75Zm-9 3h.75a2.25 2.25 0 0 1 2.25-2.25v-1.5a3.75 3.75 0 0 0-3.75 3.75h.75Zm1 2v-.75a.25.25 0 0 1-.25-.25h-1.5c0 .966.784 1.75 1.75 1.75v-.75Zm10 0v.75a1.75 1.75 0 0 0 1.75-1.75h-1.5a.25.25 0 0 1-.25.25v.75ZM11.79 8.166h-.75a4.25 4.25 0 0 0 4.25 4.25v-1.5a2.75 2.75 0 0 1-2.75-2.75h-.75Zm3.5 3.5v.75a4.25 4.25 0 0 0 4.25-4.25h-1.5a2.75 2.75 0 0 1-2.75 2.75v.75Zm3.5-3.5h.75a4.25 4.25 0 0 0-4.25-4.25v1.5a2.75 2.75 0 0 1 2.75 2.75h.75Zm-3.5-3.5v-.75a4.25 4.25 0 0 0-4.25 4.25h1.5a2.75 2.75 0 0 1 2.75-2.75v-.75ZM6.546 19.334v-.75H2.688v1.5h3.858v-.75Zm-4.858-1h.75v-1h-1.5v1h.75Zm3-4v.75h2v-1.5h-2v.75Zm-3 3h.75a2.25 2.25 0 0 1 2.25-2.25v-1.5a3.75 3.75 0 0 0-3.75 3.75h.75Zm1 2v-.75a.25.25 0 0 1-.25-.25h-1.5c0 .966.784 1.75 1.75 1.75v-.75ZM5.5 8.444h-.75c0 2.416 2.058 4.306 4.508 4.306v-1.5c-1.7 0-3.008-1.295-3.008-2.807H5.5ZM9.5 5v-.75c-2.354 0-4.75 1.69-4.75 4.193h1.5c0-1.426 1.453-2.693 3.25-2.693V5Z" class="icon-fill-gray-primary"/>
  </g>
</svg>
