<svg xmlns="http://www.w3.org/2000/svg" width="24" height="24" fill="none" viewBox="0 0 24 24">
  <g class="icon-info">
    <g class="icon-fill-blue-primary">
      <path fill="#446ECA" d="M19.5 17.999a3.5 3.5 0 1 0-3.5 3.5v1.5a5 5 0 1 1 0-10 5 5 0 0 1 0 10v-1.5a3.5 3.5 0 0 0 3.5-3.5Z"/>
      <path fill="#446ECA" d="M15.25 19.999v-2a.75.75 0 0 1 1.5 0v2a.75.75 0 0 1-1.5 0Zm.753-4.75a.75.75 0 0 1 0 1.5H16a.75.75 0 0 1 0-1.5h.003Z"/>
    </g>
    <path stroke="#444" stroke-linecap="round" stroke-linejoin="round" stroke-width="1.5" d="m4.578 7.5 4.972-5m-4.972 5H9.45a.1.1 0 0 0 .1-.1V2.5m-4.972 5-.073 12.994a1 1 0 0 0 1 1.005H10m-.45-19h7.95a1 1 0 0 1 1 1V11" class="icon-stroke-gray-primary"/>
  </g>
</svg>
