<svg xmlns="http://www.w3.org/2000/svg" width="24" height="24" fill="none" viewBox="0 0 24 24">
  <g class="icon-strikethrough">
    <path fill="#444" d="M14.793 7.125a.75.75 0 0 0 1.458-.353l-.729.176-.729.177ZM13 12.25a.75.75 0 1 0 0-1.5v1.5Zm-3.882 3.724a.75.75 0 1 0-1.455.364l.728-.182.727-.182Zm6.404-9.026.73-.177-.001-.001v-.002l-.002-.005-.003-.012a1.793 1.793 0 0 0-.043-.143 4.335 4.335 0 0 0-.779-1.382c-.648-.772-1.744-1.507-3.471-1.507v1.5c1.24 0 1.93.505 2.324.973a2.836 2.836 0 0 1 .501.883 1.124 1.124 0 0 1 .017.055v-.002a.032.032 0 0 1-.001-.002l.728-.178Zm-3.57-2.479v-.75C9.888 3.72 7.75 5.201 7.75 7.5h1.5c0-1.233 1.207-2.28 2.703-2.28v-.75ZM8.5 7.5h-.75c0 2.435 2.03 4.75 5.25 4.75v-1.5c-2.432 0-3.75-1.684-3.75-3.25H8.5Zm-.11 8.656-.727.183.001.003.001.004a1.706 1.706 0 0 0 .047.153 4.15 4.15 0 0 0 .782 1.338c.652.745 1.743 1.444 3.459 1.444v-1.5c-1.253 0-1.943-.489-2.33-.931a2.649 2.649 0 0 1-.49-.833 1.163 1.163 0 0 1-.015-.044l-.002-.006v.002l.001.002v.002h.001l-.727.183Zm3.563 2.375v.75c2.48 0 4.906-1.583 4.906-4.312h-1.5c0 1.624-1.447 2.812-3.406 2.812v.75Zm4.156-3.562h.75c0-.276-.024-.546-.073-.807l-.737.138-.737.137c.03.166.047.343.047.532h.75Z" class="icon-stroke-gray-primary"/>
    <path stroke="#446ECA" stroke-linecap="round" stroke-linejoin="round" stroke-miterlimit="1.414" stroke-width="1.5" d="M5 11.5h14" class="icon-stroke-blue-primary"/>
  </g>
</svg>
