<svg xmlns="http://www.w3.org/2000/svg" width="24" height="24" fill="none" viewBox="0 0 24 24">
  <g class="icon-save">
    <path fill="#444" d="M16.084 2.9c.463 0 .908.184 1.236.511l3.274 3.268c.328.328.513.774.513 1.238v11.44a1.75 1.75 0 0 1-1.75 1.75H4.65a1.75 1.75 0 0 1-1.75-1.75V4.648c0-.966.784-1.75 1.75-1.75h11.434ZM4.65 4.4a.25.25 0 0 0-.25.25v14.706c0 .138.112.25.25.25h2.104v-5.96c0-.966.783-1.75 1.75-1.75h6.994c.966.001 1.75.784 1.75 1.75v5.96h2.11a.25.25 0 0 0 .25-.25V7.917a.25.25 0 0 0-.074-.177l-3.273-3.267a.252.252 0 0 0-.177-.074h-1.401v2.103a1.75 1.75 0 0 1-1.75 1.75h-4.43a1.75 1.75 0 0 1-1.75-1.75V4.399H4.65Zm3.854 8.996a.25.25 0 0 0-.25.25v5.96h7.494v-5.96a.25.25 0 0 0-.25-.25H8.504Zm-.25-6.894c0 .138.112.25.25.25h4.429a.25.25 0 0 0 .25-.25V4.399h-4.93v2.103Z" class="icon-fill-gray-primary"/>
  </g>
</svg>
