<svg xmlns="http://www.w3.org/2000/svg" width="24" height="24" fill="none" viewBox="0 0 24 24">
  <g class="icon-double-strikethrough">
    <path fill="#444" d="M9.118 15.974a.75.75 0 1 0-1.455.364l.728-.182.727-.182Zm5.675-8.849a.75.75 0 1 0 1.458-.353l-.729.176-.729.177Zm-6.038 3.59a.75.75 0 1 0 1.112-1.007l-.556.503-.556.504Zm-.364 5.441-.728.183.001.003.001.005a1.706 1.706 0 0 0 .047.152 4.15 4.15 0 0 0 .782 1.338c.652.745 1.743 1.444 3.459 1.444v-1.5c-1.253 0-1.943-.489-2.33-.931a2.65 2.65 0 0 1-.49-.833 1.088 1.088 0 0 1-.015-.044l-.001-.006v.006h.001l-.727.183Zm3.562 2.375v.75c2.48 0 4.906-1.583 4.906-4.312h-1.5c0 1.624-1.447 2.812-3.406 2.812v.75Zm3.57-11.583.728-.177v-.003l-.002-.005-.003-.012a1.772 1.772 0 0 0-.043-.143 4.335 4.335 0 0 0-.779-1.382c-.648-.772-1.744-1.507-3.471-1.507v1.5c1.24 0 1.93.505 2.324.973a2.836 2.836 0 0 1 .501.883l.015.05.002.006v-.003l-.001-.002.728-.178Zm-3.57-2.479v-.75c-1.048 0-2.103.347-2.91.975-.815.633-1.402 1.58-1.402 2.744h1.5c0-.618.302-1.155.823-1.56.53-.412 1.256-.659 1.989-.659v-.75ZM8.39 7.438h-.75c0 1.34.366 2.451 1.114 3.277l.556-.504.556-.503c-.44-.486-.726-1.208-.726-2.27h-.75Z" class="icon-stroke-gray-primary"/>
    <path stroke="#446ECA" stroke-linecap="round" stroke-linejoin="round" stroke-miterlimit="1.414" d="M5 10.5h14m-14 2h14" class="icon-stroke-blue-primary"/>
  </g>
</svg>
