<svg xmlns="http://www.w3.org/2000/svg" width="24" height="24" fill="none" viewBox="0 0 24 24">
  <g class="icon-autosave">
    <path fill="#444" d="M9.55 1.747a.75.75 0 0 0-.532.22l-4.972 5-.092.114a.751.751 0 0 0-.126.412l-.072 12.994a1.75 1.75 0 0 0 1.749 1.76H10a.75.75 0 0 0 0-1.5H5.505a.25.25 0 0 1-.25-.251l.07-12.25h4.124c.47 0 .85-.38.85-.849v-4.15H17.5a.25.25 0 0 1 .25.25v7.5a.75.75 0 0 0 1.5 0v-7.5a1.75 1.75 0 0 0-1.75-1.75H9.55Zm-.75 5H6.382L8.8 4.314v2.433Z" class="icon-fill-gray-primary"/>
    <path fill="#446ECA" d="M15.999 12.997a5 5 0 0 1 4.999 5 4.98 4.98 0 0 1-1.433 3.5h.683a.75.75 0 0 1 0 1.5H18.07a1 1 0 0 1-1-1v-2.18a.75.75 0 0 1 1.5 0v.552a3.5 3.5 0 1 0-3.956.843.75.75 0 1 1-.595 1.377A5.008 5.008 0 0 1 11 17.997a5 5 0 0 1 4.999-5Z" class="icon-fill-blue-primary"/>
  </g>
</svg>
