<svg xmlns="http://www.w3.org/2000/svg" width="24" height="24" fill="none" viewBox="0 0 24 24">
  <g class="icon-spellcheck">
    <path fill="#444" d="m11.5 7.5.702-.263a.75.75 0 0 0-1.404 0l.702.263Zm2.298 8.263a.75.75 0 1 0 1.404-.526l-.702.263-.702.263Zm-6-.526a.75.75 0 1 0 1.404.526L8.5 15.5l-.702-.263ZM8.5 20.25a.75.75 0 0 0 0-1.5v1.5Zm10.25-6.75a.75.75 0 0 0 1.5 0h-1.5Zm-7.25-6-.702.263 3 8 .702-.263.702-.263-3-8-.702.263Zm-3 8 .702.263 3-8L11.5 7.5l-.702-.263-3 8 .702.263Zm.75-2v.75h4.5v-1.5h-4.5v.75Zm-4.5-10v.75h13.5v-1.5H4.75v.75ZM3.5 18.25h.75V4.75h-1.5v13.5h.75Zm5 1.25v-.75H4.75v1.5H8.5v-.75Zm11-14.75h-.75v8.75h1.5V4.75h-.75Zm-16 13.5h-.75a2 2 0 0 0 2 2v-1.5a.5.5 0 0 1-.5-.5H3.5ZM18.25 3.5v.75a.5.5 0 0 1 .5.5h1.5a2 2 0 0 0-2-2v.75Zm-13.5 0v-.75a2 2 0 0 0-2 2h1.5a.5.5 0 0 1 .5-.5V3.5Z" class="icon-stroke-gray-primary"/>
    <path stroke="#446ECA" stroke-linecap="round" stroke-linejoin="round" stroke-miterlimit="1.414" stroke-width="1.5" d="m21.5 15.296-5 6-3-3" class="icon-stroke-blue-primary"/>
  </g>
</svg>
