<svg xmlns="http://www.w3.org/2000/svg" width="24" height="24" fill="none" viewBox="0 0 24 24">
  <g class="icon-autosave-rtl">
    <path fill="#444" d="M15.204 1.747c.2 0 .392.079.532.22l4.972 5 .092.114c.08.12.125.264.126.412l.072 12.994a1.75 1.75 0 0 1-1.749 1.76h-4.495a.75.75 0 0 1 0-1.5h4.495a.25.25 0 0 0 .25-.251l-.07-12.25h-4.124a.85.85 0 0 1-.85-.849v-4.15H7.253a.25.25 0 0 0-.25.25v7.5a.75.75 0 0 1-1.5 0v-7.5c0-.967.783-1.75 1.75-1.75h7.95Zm.75 5h2.418l-2.418-2.433v2.433Z" class="Union"/>
    <path fill="#446ECA" d="M8.755 12.997a5 5 0 0 1 4.999 5 4.98 4.98 0 0 1-1.433 3.5h.683a.75.75 0 0 1 0 1.5h-2.178a1 1 0 0 1-1-1v-2.18a.75.75 0 0 1 1.5 0v.552a3.5 3.5 0 1 0-3.956.843.75.75 0 1 1-.595 1.377 5.009 5.009 0 0 1-3.02-4.592 5 5 0 0 1 5-5Z" class="Union"/>
  </g>
</svg>
