<svg xmlns="http://www.w3.org/2000/svg" width="24" height="24" fill="none" viewBox="0 0 24 24">
  <g class="icon-text-selection">
    <path stroke="#444" stroke-linecap="square" stroke-width="1.5" d="m11 9-2.293 2.293a1 1 0 0 0 0 1.414L9 13m2-4-.086-.086a2 2 0 0 1 0-2.828L12.5 4.5M11 9l5 5m0 0-2.293 2.293a1 1 0 0 1-1.414 0L12 16m4-2 .086.086a2 2 0 0 0 2.828 0L20.5 12.5M9 13l-3.34 3.34a.5.5 0 0 0 .256.843l3.822.765a.5.5 0 0 0 .451-.137L12 16m-3-3 3 3" class="icon-stroke-gray-primary"/>
  </g>
</svg>
