<svg xmlns="http://www.w3.org/2000/svg" width="24" height="24" fill="none" viewBox="0 0 24 24">
  <g class="icon-move-foreground">
    <path fill="#444" d="M9.75 6.296a.75.75 0 0 0 1.5 0h-1.5Zm3.75 11h-.75v2h1.5v-2h-.75Zm1 3v.75h5v-1.5h-5v.75Zm6-1h.75v-5h-1.5v5h.75Zm-3-6v.75h2v-1.5h-2v.75Zm3 1h.75a1.75 1.75 0 0 0-1.75-1.75v1.5a.25.25 0 0 1 .25.25h.75Zm-1 6v.75a1.75 1.75 0 0 0 1.75-1.75h-1.5a.25.25 0 0 1-.25.25v.75Zm-6-1h-.75c0 .966.784 1.75 1.75 1.75v-1.5a.25.25 0 0 1-.25-.25h-.75Zm-10-15h-.75v5h1.5v-5H3.5Zm7 2h.75v-2h-1.5v2h.75Zm-6-3v.75h5v-1.5h-5v.75Zm0 7v.75h2v-1.5h-2v.75Zm6-6h.75a1.75 1.75 0 0 0-1.75-1.75v1.5a.25.25 0 0 1 .25.25h.75Zm-7 5h-.75c0 .966.784 1.75 1.75 1.75v-1.5a.25.25 0 0 1-.25-.25H3.5Zm0-5h.75a.25.25 0 0 1 .25-.25v-1.5a1.75 1.75 0 0 0-1.75 1.75h.75Z" class="icon-stroke-gray-primary"/>
    <path fill="#DCE7FA" d="M17.5 7.296v9a1 1 0 0 1-1 1h-9a1 1 0 0 1-1-1v-9a1 1 0 0 1 1-1h9a1 1 0 0 1 1 1Z" class="icon-fill-blue-secondary"/>
    <path stroke="#446ECA" stroke-linecap="round" stroke-linejoin="round" stroke-width="1.5" d="M17.5 7.296v9a1 1 0 0 1-1 1h-9a1 1 0 0 1-1-1v-9a1 1 0 0 1 1-1h9a1 1 0 0 1 1 1Z" class="icon-stroke-blue-primary"/>
  </g>
</svg>
