<svg xmlns="http://www.w3.org/2000/svg" width="24" height="24" fill="none" viewBox="0 0 24 24">
  <g class="icon-table-add-row-above-rtl">
    <path fill="#446ECA" d="M2 6.604a.75.75 0 0 1 0-1.5h3.25v-3.25a.75.75 0 1 1 1.5 0v3.25H10a.75.75 0 1 1 0 1.5H6.75v3.25a.75.75 0 0 1-1.5 0v-3.25H2Z" class="icon-fill-blue-primary"/>
    <path fill="#444" fill-rule="evenodd" d="M11.236 3.398a2.75 2.75 0 0 1-1.235 5.206H8.5v4.939H4.25a.746.746 0 0 0-.25.045v-2.795a.75.75 0 0 0-1.5 0v7.5c0 .966.784 1.75 1.75 1.75h16a1.75 1.75 0 0 0 1.75-1.75V5.148a1.75 1.75 0 0 0-1.75-1.75h-9.014ZM20.5 18.293a.25.25 0 0 1-.25.25H16v-3.5h4.5v3.25Zm-6 .25H10v-3.5h4.5v3.5ZM4 14.997a.746.746 0 0 0 .25.046H8.5v3.5H4.25a.25.25 0 0 1-.25-.25v-3.296Zm16.5-1.454H16v-3.5h4.5v3.5Zm-6 0H10v-3.5h4.5v3.5Z" class="icon-fill-gray-primary" clip-rule="evenodd"/>
  </g>
</svg>
