<svg xmlns="http://www.w3.org/2000/svg" width="24" height="24" fill="none" viewBox="0 0 24 24">
  <g class="icon-transition-split">
    <path fill="#BE6650" d="M20 18.246a.25.25 0 0 1-.25.25h-2.5a.25.25 0 0 1-.25-.25v-2.839a1.498 1.498 0 0 0 1.56-.35l1.44-1.44v4.629Zm-.25-12.75a.25.25 0 0 1 .25.25v4.629l-1.44-1.44A1.499 1.499 0 0 0 17 8.583V5.746a.25.25 0 0 1 .25-.25h2.5Zm-14.31 9.56a1.497 1.497 0 0 0 1.56.351v2.839a.25.25 0 0 1-.25.25h-2.5a.25.25 0 0 1-.25-.25v-4.63l1.44 1.44Zm1.31-9.56a.25.25 0 0 1 .25.25v2.837a1.499 1.499 0 0 0-1.56.352L4 10.375v-4.63a.25.25 0 0 1 .25-.25h2.5Z" class="icon-fill-red-brend-transition-primary" opacity=".3"/>
    <path fill="#BE6650" d="M16.088 13.496A1.499 1.499 0 0 0 17 15.408v2.838a.25.25 0 0 1-.25.25h-2.5a.25.25 0 0 1-.25-.25v-4.75h2.088Zm.662-8a.25.25 0 0 1 .25.25v2.838a1.491 1.491 0 0 0-.912 1.912H14v-4.75a.25.25 0 0 1 .25-.25h2.5ZM10 18.246a.25.25 0 0 1-.25.25h-2.5a.25.25 0 0 1-.25-.25v-2.838a1.493 1.493 0 0 0 .912-1.912H10v4.75Zm-.25-12.75a.25.25 0 0 1 .25.25v4.75H7.912A1.498 1.498 0 0 0 7 8.583V5.746a.25.25 0 0 1 .25-.25h2.5Z" class="icon-fill-red-brend-transition-primary" opacity=".5"/>
    <path fill="#BE6650" d="M13.75 5.496a.25.25 0 0 1 .25.25v4.75h-.5a1.5 1.5 0 0 0 0 3h.5v4.75a.25.25 0 0 1-.25.25h-3.5a.25.25 0 0 1-.25-.25v-4.75h.5a1.5 1.5 0 1 0 0-3H10v-4.75a.25.25 0 0 1 .25-.25h3.5Z" class="icon-fill-red-brend-transition-primary" opacity=".8"/>
    <path fill="#444" d="M20.5 3.245c.966 0 1.75.785 1.75 1.751v14a1.75 1.75 0 0 1-1.75 1.75h-17a1.75 1.75 0 0 1-1.75-1.75v-14a1.75 1.75 0 0 1 1.75-1.75h17Zm-17 1.501a.25.25 0 0 0-.25.25v14c0 .138.112.25.25.25h17a.25.25 0 0 0 .25-.25v-14a.25.25 0 0 0-.25-.25h-17Zm2.646 4.897a.5.5 0 0 1 .708.707l-1.147 1.146H10.5a.5.5 0 0 1 0 1H5.707l1.147 1.147a.5.5 0 0 1-.708.707l-1.823-1.824a.75.75 0 0 1 0-1.06l1.823-1.823Zm11 0a.5.5 0 0 1 .707 0l1.824 1.823a.75.75 0 0 1 0 1.06l-1.823 1.824a.5.5 0 0 1-.707-.707l1.146-1.147H13.5a.5.5 0 0 1 0-1h4.793l-1.146-1.146a.5.5 0 0 1 0-.707Z" class="icon-fill-gray-primary"/>
  </g>
</svg>
