<svg xmlns="http://www.w3.org/2000/svg" width="24" height="24" fill="none" viewBox="0 0 24 24">
  <g class="icon-transition-uncover">
    <path fill="#444" d="M20.5 3.246c.966 0 1.75.784 1.75 1.75v14a1.75 1.75 0 0 1-1.75 1.75h-17a1.75 1.75 0 0 1-1.75-1.75v-14c0-.966.784-1.75 1.75-1.75h17Zm-4.5 16h4.5a.25.25 0 0 0 .25-.25v-14a.25.25 0 0 0-.25-.25H16v14.5ZM3.5 4.746a.25.25 0 0 0-.25.25v14c0 .138.112.25.25.25H15v-14.5H3.5Zm4.687 3.897a.5.5 0 1 1 .697.715l-2.197 2.138H13.5a.5.5 0 0 1 0 1H6.685l2.199 2.147a.5.5 0 0 1-.698.715L5.18 12.426a.6.6 0 0 1 0-.86l3.006-2.923Z" class="icon-fill-gray-primary"/>
    <path fill="#FBE4DE" d="M19.75 5.496a.25.25 0 0 1 .25.25v12.5a.25.25 0 0 1-.25.25h-2.5a.25.25 0 0 1-.25-.25v-12.5a.25.25 0 0 1 .25-.25h2.5Z" class="icon-fill-red-brend-transition-secondary"/>
  </g>
</svg>
