<svg xmlns="http://www.w3.org/2000/svg" width="24" height="24" fill="none" viewBox="0 0 24 24">
  <g class="icon-transition-сut">
    <path fill="var(--transition-stroke)" d="M15.25 5.5a.25.25 0 0 1 .25.25v8a.25.25 0 0 1-.25.25h-11a.25.25 0 0 1-.25-.25v-8a.25.25 0 0 1 .25-.25h11Z" class="icon-fill-red-brend-transition-primary" opacity=".8"/>
    <path fill="var(--transition-icon-fill)" d="M19.5 9a.5.5 0 0 1 .5.5V18a.5.5 0 0 1-.5.5H8a.5.5 0 0 1 0-1h9a2 2 0 0 0 2-2v-6a.5.5 0 0 1 .5-.5Z" class="icon-fill-red-brend-transition-secondary"/>
    <path fill="var(--transition-fill)" d="M20.809 6.5c.976 0 1.691.827 1.691 1.75v11c0 .923-.715 1.75-1.691 1.75H6.69C5.715 21 5 20.173 5 19.25v-1a.75.75 0 0 1 1.5 0v1c0 .182.128.25.191.25H20.81c.063 0 .191-.068.191-.25v-11c0-.182-.128-.25-.191-.25h-1.063a.75.75 0 0 1 0-1.5h1.063ZM16.259 3c.94 0 1.626.796 1.626 1.68v10.233c0 .885-.686 1.68-1.626 1.68H3.126c-.94 0-1.626-.795-1.626-1.68V4.681C1.5 3.796 2.186 3 3.126 3h13.133ZM3.126 4.5c-.02 0-.046.007-.073.036A.21.21 0 0 0 3 4.681v10.232a.21.21 0 0 0 .053.145.1.1 0 0 0 .073.036h13.133c.02 0 .045-.007.073-.036a.21.21 0 0 0 .053-.145V4.681a.21.21 0 0 0-.053-.145c-.028-.03-.054-.036-.073-.036H3.126Z" class="icon-fill-gray-primary"/>
  </g>
</svg>
