<svg xmlns="http://www.w3.org/2000/svg" width="24" height="24" fill="none" viewBox="0 0 24 24">
  <g class="icon-transition-zoom">
    <path fill="#FBE4DE" d="M19.75 4.996a.25.25 0 0 1 .25.25v10.5a.25.25 0 0 1-.25.25H7.25a.25.25 0 0 1-.25-.25v-10.5a.25.25 0 0 1 .25-.25h12.5Z" class="icon-fill-red-brend-transition-secondary"/>
    <path stroke="#444" stroke-linecap="round" stroke-width="1.5" d="M5.5 9.496h-2a1 1 0 0 0-1 1v9a1 1 0 0 0 1 1h11a1 1 0 0 0 1-1v-2m-10-13a1 1 0 0 1 1-1h14a1 1 0 0 1 1 1v12a1 1 0 0 1-1 1h-14a1 1 0 0 1-1-1v-12Z" class="icon-stroke-gray-primary"/>
  </g>
</svg>
