<svg xmlns="http://www.w3.org/2000/svg" width="24" height="24" fill="none" viewBox="0 0 24 24">
  <g class="icon-transition-random">
    <path fill="#FBE4DE" d="M19.75 5.496a.25.25 0 0 1 .25.25v12.5a.25.25 0 0 1-.25.25H4.25a.25.25 0 0 1-.25-.25v-12.5a.25.25 0 0 1 .25-.25h15.5Zm-7.73.874c-1.637 0-3.19 1.224-3.19 3.175l.008.153a1.5 1.5 0 0 0 2.54.918 7.117 7.117 0 0 0-.37.548c-.212.35-.51.925-.51 1.586v.534c0 .396.155.756.407 1.024a1.828 1.828 0 0 0-.747 1.475 1.834 1.834 0 0 0 1.833 1.833H12c1.012 0 1.832-.82 1.833-1.832v-.001c0-.605-.294-1.139-.745-1.473.253-.268.41-.629.41-1.026v-.425c.015-.031.04-.08.078-.143.12-.2.308-.447.552-.742.114-.137.365-.436.582-.815.187-.326.4-.799.45-1.365l.01-.25c0-1.695-1.38-3.174-3.149-3.174Zm.037 3.009a.178.178 0 0 1 .056.04c.037.037.052.08.055.116l-.001.004a.743.743 0 0 1-.062.129 2.7 2.7 0 0 1-.287.39c-.06.072-.122.147-.183.224.1-.176.166-.373.187-.584l.008-.153c0-.058.01-.09.017-.105a.076.076 0 0 1 .017-.027c.01-.01.054-.043.156-.043l.037.009Z" class="icon-fill-red-brend-transition-secondary"/>
    <path fill="#444" d="M20.5 3.246c.966 0 1.75.784 1.75 1.75v14a1.75 1.75 0 0 1-1.75 1.75h-17a1.75 1.75 0 0 1-1.75-1.75v-14c0-.966.784-1.75 1.75-1.75h17Zm-17 1.5a.25.25 0 0 0-.25.25v14c0 .138.112.25.25.25h17a.25.25 0 0 0 .25-.25v-14a.25.25 0 0 0-.25-.25h-17Zm8.499 10.204a.833.833 0 0 1 0 1.666h-.008a.833.833 0 0 1 0-1.666H12Zm.021-7.58c1.193 0 2.15 1.008 2.15 2.175 0 .436-.16.823-.33 1.117a4.691 4.691 0 0 1-.483.674 7.556 7.556 0 0 0-.637.862c-.169.28-.223.46-.223.552v.533a.5.5 0 0 1-1 0v-.533c0-.377.176-.754.366-1.068.2-.33.463-.669.725-.985a3.78 3.78 0 0 0 .386-.532c.123-.215.196-.426.196-.62 0-.636-.53-1.175-1.15-1.175-.66 0-1.19.452-1.19 1.175a.5.5 0 0 1-1 0c0-1.335 1.04-2.175 2.19-2.175Z" class="icon-fill-gray-primary"/>
  </g>
</svg>
