<svg xmlns="http://www.w3.org/2000/svg" width="24" height="24" fill="none" viewBox="0 0 24 24">
  <g class="icon-show-password">
    <path fill="#444" d="m4.5 11.796-.705-.256a.75.75 0 0 0 0 .513l.705-.257Zm15 0 .705.257a.749.749 0 0 0 0-.513l-.705.256Zm-6.167 1.491-.5-.559.5.56Zm-2.824-2.824.56.5-.56-.5ZM12 17.296v-.75c-2.467 0-4.151-1.223-5.245-2.49a9.568 9.568 0 0 1-1.47-2.322 5.016 5.016 0 0 1-.08-.195l-.705.257-.705.257v.001l.001.002.002.006a2.806 2.806 0 0 0 .029.073c.019.047.046.114.082.197a11.063 11.063 0 0 0 1.71 2.705c1.282 1.483 3.348 3.01 6.381 3.01v-.75Zm0 0v.75c3.033 0 5.099-1.526 6.38-3.01a11.066 11.066 0 0 0 1.711-2.704 6.6 6.6 0 0 0 .11-.27l.003-.006v-.002l-.704-.258a86.504 86.504 0 0 1-.705-.256v-.001l-.002.007-.014.035a8.334 8.334 0 0 1-.34.723 9.571 9.571 0 0 1-1.194 1.752c-1.094 1.267-2.778 2.49-5.245 2.49v.75Zm0-3.5v-.75c-.69 0-1.25-.56-1.25-1.25h-1.5a2.75 2.75 0 0 0 2.75 2.75v-.75Zm0-4v.75c.69 0 1.25.56 1.25 1.25h1.5A2.75 2.75 0 0 0 12 9.046v.75Zm2 2h-.75c0 .37-.16.702-.417.932l.5.56.5.558a2.745 2.745 0 0 0 .917-2.05H14Zm-.667 1.491-.5-.559a1.242 1.242 0 0 1-.833.318v1.5c.704 0 1.348-.265 1.834-.7l-.5-.559ZM10 11.797h.75c0-.321.12-.612.318-.834l-.559-.5-.559-.5c-.435.486-.7 1.13-.7 1.833H10Zm.51-1.334.558.5c.23-.257.562-.417.932-.417v-1.5c-.815 0-1.547.355-2.05.917l.56.5ZM12 6.296v-.75c-3.033 0-5.099 1.526-6.38 3.01a11.067 11.067 0 0 0-1.711 2.705 6.589 6.589 0 0 0-.104.253l-.007.017-.002.006v.002l.704.257.705.257v.001c0-.001 0-.004.002-.007a2.662 2.662 0 0 1 .077-.188 9.568 9.568 0 0 1 1.47-2.323C7.849 8.27 9.533 7.046 12 7.046v-.75Zm0 0v.75c2.467 0 4.151 1.224 5.245 2.49a9.571 9.571 0 0 1 1.47 2.323c.03.068.05.12.064.152l.014.036.003.007.704-.258.705-.257-.001-.002-.002-.006-.007-.017a9.82 9.82 0 0 0-.431-.929 11.07 11.07 0 0 0-1.384-2.029c-1.28-1.484-3.347-3.01-6.38-3.01v.75Z" class="icon-stroke-gray-primary"/>
  </g>
</svg>
