<svg xmlns="http://www.w3.org/2000/svg" width="24" height="24" fill="none" viewBox="0 0 24 24">
  <g class="icon-link">
    <path stroke="#444" stroke-linecap="round" stroke-linejoin="round" stroke-miterlimit="16" stroke-width="1.5" d="M21.375 12a9.375 9.375 0 1 1-18.75 0 9.375 9.375 0 0 1 18.75 0Z" class="icon-stroke-gray-primary"/>
    <path fill="#444" fill-rule="evenodd" d="M13.523 7.051a.5.5 0 0 1 .545.109l3.43 3.427a.504.504 0 0 1 0 .708l-3.429 3.428a.501.501 0 0 1-.854-.354v-1.797c-2.317.19-4.828 1.445-4.852 4v.28a.653.653 0 0 1-1.306 0l.002-1.384c0-3.033 3.098-6.188 6.156-6.575v-1.38a.5.5 0 0 1 .308-.462Z" class="icon-fill-gray-primary" clip-rule="evenodd"/>
  </g>
</svg>
