<svg xmlns="http://www.w3.org/2000/svg" width="24" height="24" fill="none" viewBox="0 0 24 24">
  <g class="icon-settings">
    <path fill="#444" d="M9 12a1.5 1.5 0 1 1-3 0 1.5 1.5 0 0 1 3 0Zm4.5 0a1.5 1.5 0 1 1-3 0 1.5 1.5 0 0 1 3 0Zm4.5 0a1.5 1.5 0 1 1-3 0 1.5 1.5 0 0 1 3 0Z" class="icon-fill-gray-primary"/>
    <path stroke="#444" stroke-linecap="round" stroke-linejoin="round" stroke-miterlimit="16" stroke-width="1.5" d="M21.375 12a9.375 9.375 0 1 1-18.75 0 9.375 9.375 0 0 1 18.75 0Z" class="icon-stroke-gray-primary"/>
  </g>
</svg>
