<svg xmlns="http://www.w3.org/2000/svg" width="24" height="24" fill="none" viewBox="0 0 24 24">
  <g class="icon-pagebreak">
    <path stroke="#444" stroke-width="1.5" d="M9.979 2.5h8.52a1 1 0 0 1 1 1V13M9.98 2.5 4.5 7.933M9.979 2.5l.017 4.484a1 1 0 0 1-1.012 1.004L4.5 7.933m0 0V13m.046 4v3.5a1 1 0 0 0 1 1H18.5a1 1 0 0 0 1-1V17" class="icon-stroke-gray-primary"/>
    <path stroke="#446ECA" stroke-linecap="round" stroke-linejoin="round" stroke-width="1.5" d="M3.5 15h1m3 0h1m3 0h1m3 0h1m3 0h1" class="icon-stroke-blue-primary"/>
  </g>
</svg>
