<svg xmlns="http://www.w3.org/2000/svg" width="24" height="24" fill="none" viewBox="0 0 24 24">
  <g class="icon-transition-push">
    <path fill="#BE6650" d="M9.75 5.496a.25.25 0 0 1 .25.25v2.629l-2.56 2.56-.067.073-.062.076-.06.08-.057.094a1.5 1.5 0 0 0-.19.627l-.004.11c0 .262.068.516.194.74l.058.093c.018.027.038.054.059.08l.062.076c.02.025.043.05.066.072L10 15.616v2.63a.25.25 0 0 1-.25.25h-5.5a.25.25 0 0 1-.25-.25v-12.5a.25.25 0 0 1 .25-.25h5.5Z" class="icon-fill-red-brend-transition-primary" opacity=".3"/>
    <path fill="#BE6650" d="M16 18.246a.25.25 0 0 1-.25.25h-5.5a.25.25 0 0 1-.25-.25v-2.63l.44.44.07.065.078.064.086.064c.547.36 1.276.326 1.787-.102l.1-.09a1.5 1.5 0 0 0 .192-1.887l-.063-.086-.065-.078-.065-.07-.439-.44H16v4.75Zm-.25-12.75a.25.25 0 0 1 .25.25v4.75h-3.879l.44-.44a1.5 1.5 0 0 0 0-2.12l-.115-.104a1.5 1.5 0 0 0-1.892 0l-.114.103-.44.44v-2.63a.25.25 0 0 1 .25-.25h5.5Z" class="icon-fill-red-brend-transition-primary" opacity=".5"/>
    <path fill="#BE6650" d="M19.75 5.496a.25.25 0 0 1 .25.25v12.5a.25.25 0 0 1-.25.25h-3.5a.25.25 0 0 1-.25-.25v-4.75h.5a1.5 1.5 0 0 0 1.492-1.347l.008-.153-.008-.154a1.5 1.5 0 0 0-1.492-1.346H16v-4.75a.25.25 0 0 1 .25-.25h3.5Z" class="icon-fill-red-brend-transition-primary" opacity=".8"/>
    <path fill="#444" d="M20.5 3.245c.966 0 1.75.785 1.75 1.751v14a1.75 1.75 0 0 1-1.75 1.75h-17a1.75 1.75 0 0 1-1.75-1.75v-14a1.75 1.75 0 0 1 1.75-1.75h17Zm-17 1.501a.25.25 0 0 0-.25.25v14c0 .138.112.25.25.25h17a.25.25 0 0 0 .25-.25v-14a.25.25 0 0 0-.25-.25h-17Zm7.687 3.896a.5.5 0 0 1 .697.716l-2.197 2.138H16.5a.5.5 0 0 1 0 1H9.685l2.199 2.147a.5.5 0 1 1-.699.714l-3.004-2.932a.6.6 0 0 1 0-.859l3.006-2.924Z" class="icon-fill-gray-primary"/>
  </g>
</svg>
