<svg xmlns="http://www.w3.org/2000/svg" width="24" height="24" fill="none" viewBox="0 0 24 24">
  <g class="icon-setup">
    <path stroke="#444" stroke-linecap="round" stroke-linejoin="round" stroke-width="1.5" d="M4.5 16.499h4m7.097-6.53L11 14.566v1.97h1.97l4.597-4.597m-1.97-1.97 1.263-1.263a1 1 0 0 1 1.414 0l.556.556a1 1 0 0 1 0 1.414l-1.263 1.263m-1.97-1.97 1.97 1.97M22.5 18.5v-13a1 1 0 0 0-1-1h-19a1 1 0 0 0-1 1v13a1 1 0 0 0 1 1h19a1 1 0 0 0 1-1Z" class="icon-stroke-gray-primary"/>
    <path stroke="#444" stroke-linecap="round" stroke-width="2" d="M22.5 4.499h-21m0 15h21" class="icon-stroke-gray-primary"/>
  </g>
</svg>
