<svg xmlns="http://www.w3.org/2000/svg" width="24" height="24" fill="none" viewBox="0 0 24 24">
  <g class="icon-transition-cover">
      <path fill="#FBE4DE" d="M13.146 8.642a.5.5 0 1 1 .707.707l-2.146 2.147H18.5a.5.5 0 0 1 0 1h-6.793l2.146 2.146.065.079a.5.5 0 0 1-.693.693l-.079-.065-3-3-.062-.076a.5.5 0 0 1 0-.554l.063-.077 3-3Z" class="icon-fill-red-brend-transition-secondary"/>
      <path fill="#FBE4DE" fill-rule="evenodd" d="M19.75 5.496a.25.25 0 0 1 .25.25v12.5a.25.25 0 0 1-.25.25H9.25a.25.25 0 0 1-.25-.25v-12.5a.25.25 0 0 1 .25-.25h10.5Zm-5.304 2.336a1.5 1.5 0 0 0-1.892 0l-.114.103-3 3-.067.073-.062.076-.059.08-.058.094a1.5 1.5 0 0 0-.19.627l-.004.11c0 .262.068.516.194.74l.058.093c.018.027.038.054.059.08l.062.076c.02.025.043.05.066.072l3 3 .07.065.079.064.086.064a1.501 1.501 0 0 0 1.787-.102l.1-.09a1.5 1.5 0 0 0 .192-1.887l-.063-.086-.065-.078-.065-.07-.439-.44H18.5a1.5 1.5 0 0 0 1.492-1.347l.008-.153-.008-.154a1.5 1.5 0 0 0-1.492-1.346h-4.379l.44-.44a1.5 1.5 0 0 0 0-2.12l-.115-.104Z" clip-rule="evenodd" class="icon-fill-red-brend-transition-secondary"/>
      <path fill="#444" d="M13.146 8.642a.5.5 0 1 1 .707.707l-2.146 2.147H18.5a.5.5 0 0 1 0 1h-6.793l2.146 2.146.065.079a.5.5 0 0 1-.693.693l-.079-.065-3-3-.062-.076a.5.5 0 0 1 0-.554l.063-.077 3-3Z" class="icon-fill-gray-primary"/>
      <path fill="#444" fill-rule="evenodd" d="M20.5 3.246c.966 0 1.75.783 1.75 1.75v14a1.75 1.75 0 0 1-1.75 1.75h-17a1.75 1.75 0 0 1-1.75-1.75v-14c0-.967.784-1.75 1.75-1.75h17Zm-12.5 16h12.5a.25.25 0 0 0 .25-.25v-14a.25.25 0 0 0-.25-.25H8v14.5Zm-4.5-14.5a.25.25 0 0 0-.25.25v14c0 .138.112.25.25.25H7v-14.5H3.5Z" clip-rule="evenodd" class="icon-fill-gray-primary"/>
  </g>
</svg>
