<svg xmlns="http://www.w3.org/2000/svg" width="24" height="24" fill="none" viewBox="0 0 24 24">
  <g class="icon-transition-randombars">
    <path fill="#BE6650" d="M5.75 19.25h-1V4.75h1v14.5Zm4.5 0h-2V4.75h2v14.5Zm3.5 0h-2V4.75h2v14.5Zm2.5 0h-1V4.75h1v14.5Zm3.5 0h-1V4.75h1v14.5Z" class="icon-fill-red-brend-transition-primary" opacity=".8"/>
    <path stroke="#444" stroke-linecap="round" stroke-width="1.5" d="M21.5 5v14a1 1 0 0 1-1 1h-17a1 1 0 0 1-1-1V5a1 1 0 0 1 1-1h17a1 1 0 0 1 1 1Z" class="icon-stroke-gray-primary"/>
  </g>
</svg>
