<svg xmlns="http://www.w3.org/2000/svg" width="24" height="24" fill="none" viewBox="0 0 24 24">
  <g class="icon-transition-wipe">
    <path fill="#FBE4DE" d="M11 12.496v3.5a1.5 1.5 0 0 0 3 0v-3.5h5.75a.25.25 0 0 1 .25.25v5.5a.25.25 0 0 1-.25.25H4.25a.25.25 0 0 1-.25-.25v-5.5a.25.25 0 0 1 .25-.25H11Z" class="icon-fill-red-brend-transition-secondary"/>
    <path fill="#444" d="M12 15.996a.5.5 0 0 0 1 0h-1Zm.677-7.823-.354.353.354-.353Zm2.47 3.177a.5.5 0 0 0 .707-.707l-.354.353-.354.354Zm-2.824-3.177.354.353-.354-.353Zm-3.177 2.47a.5.5 0 1 0 .708.707l-.354-.354-.354-.354ZM12.5 8.495H12v7.5h1v-7.5h-.5Zm.177-.323-.354.353 2.823 2.824.354-.354.354-.354L13.03 7.82l-.353.354Zm-.354 0-.353-.354-2.824 2.824.354.353.354.354 2.823-2.824-.354-.353Zm.354 0 .353-.354a.75.75 0 0 0-1.06 0l.353.354.354.353a.25.25 0 0 1-.354 0l.354-.353Z" class="icon-stroke-gray-primary"/>
    <path fill="#444" fill-rule="evenodd" d="M20.5 3.245c.966 0 1.75.785 1.75 1.751v14a1.75 1.75 0 0 1-1.75 1.75h-17a1.75 1.75 0 0 1-1.75-1.75v-14a1.75 1.75 0 0 1 1.75-1.75h17Zm-17 1.501a.25.25 0 0 0-.25.25v5.5h4.837a1.504 1.504 0 0 0 0 1H3.25v7.5c0 .138.112.25.25.25h17a.25.25 0 0 0 .25-.25v-7.5h-3.838a1.503 1.503 0 0 0 0-1h3.838v-5.5a.25.25 0 0 0-.25-.25h-17Z" class="icon-fill-gray-primary" clip-rule="evenodd"/>
  </g>
</svg>
